<svg version="1.1" xmlns="http://www.w3.org/2000/svg" xmlns:xlink="http://www.w3.org/1999/xlink" width="641.16394" height="538.94595" viewBox="0,0,641.16394,538.94595"><defs><linearGradient x1="-0.57056" y1="331.58259" x2="568.49852" y2="331.58259" gradientUnits="userSpaceOnUse" id="color-1"><stop offset="0" stop-color="#a46be0"/><stop offset="1" stop-color="#a46ce0" stop-opacity="0.69412"/></linearGradient><linearGradient x1="205.56896" y1="-1.06002" x2="640.13169" y2="-1.06002" gradientUnits="userSpaceOnUse" id="color-2"><stop offset="0" stop-color="#689bd9" stop-opacity="0.05098"/><stop offset="1" stop-color="#689bd9"/></linearGradient><linearGradient x1="326.81811" y1="16.66066" x2="639.61719" y2="16.66066" gradientUnits="userSpaceOnUse" id="color-3"><stop offset="0" stop-color="#689bd9" stop-opacity="0.04706"/><stop offset="1" stop-color="#689bd9"/></linearGradient><linearGradient x1="0.18394" y1="359.50451" x2="527.95797" y2="359.50451" gradientUnits="userSpaceOnUse" id="color-4"><stop offset="0" stop-color="#e84dd1"/><stop offset="1" stop-color="#e84dd1" stop-opacity="0.29804"/></linearGradient><linearGradient x1="-0.31606" y1="340.34214" x2="446.87689" y2="340.34214" gradientUnits="userSpaceOnUse" id="color-5"><stop offset="0" stop-color="#d34de8"/><stop offset="1" stop-color="#d34de8" stop-opacity="0.12157"/></linearGradient><linearGradient x1="88.01802" y1="-4.60961" x2="640.21109" y2="-4.60961" gradientUnits="userSpaceOnUse" id="color-6"><stop offset="0" stop-color="#689bd9" stop-opacity="0.36471"/><stop offset="1" stop-color="#689bd9"/></linearGradient></defs><g transform="translate(0.59337,89.6967)"><g data-paper-data="{&quot;isPaintingLayer&quot;:true}" fill-rule="nonzero" stroke-width="0" stroke-linecap="butt" stroke-linejoin="miter" stroke-miterlimit="10" stroke-dasharray="" stroke-dashoffset="0" style="mix-blend-mode: normal"><path d="M-0.57057,449.24925v-538.4985h641.14114v538.4985z" fill="#b1c1f2" stroke="#000000"/><path d="M-0.06906,449.07057l-0.52431,-251.11732c0,0 45.75057,-37.47236 90.84093,-35.75777c37.45098,1.42409 139.73589,163.94516 207.56962,168.97851c25.81486,1.9155 87.87837,-68.5456 119.57764,-51.11656c30.50882,16.7745 73.49824,57.99179 103.73895,82.11753c31.09681,24.80874 41.90636,38.69363 70.57626,53.98424c30.11551,16.0616 35.93585,32.90986 35.93585,32.90986z" fill="url(#color-1)" stroke="#000000"/><path d="M430.18387,76.4798c-137.58902,-65.06358 -129.43969,-164.86841 -129.43969,-164.86841l338.23233,-0.64307l1.15518,125.74107c0,0 -129.74084,77.69898 -209.94782,39.77042z" fill="url(#color-2)" stroke="none"/><path d="M354.28609,-89.6967l285.3311,1.38807l0.84612,188.80413c0,0 -27.56882,36.88528 -60.30463,34.66651c-36.0046,-2.44032 -111.31293,-110.8024 -149.05596,-135.26711c-37.74303,-24.46471 -76.81663,-89.5916 -76.81663,-89.5916z" fill="url(#color-3)" stroke="#000000"/><path d="M0.18394,448.84384l0.52094,-203.38722c0,0 25.00912,-34.6713 64.31254,-31.11093c31.51524,2.85486 60.89952,102.75124 101.52394,116.87291c79.3495,27.58309 113.87461,-75.67589 162.70596,-44.81079c38.79586,24.52191 70.96667,69.3346 114.34049,93.58344c26.86718,15.02053 75.54242,14.9553 105.16675,25.66113c51.99961,18.79196 80.40238,43.19148 80.40238,43.19148z" fill="url(#color-4)" stroke="#000000"/><path d="M-0.31606,449.09234l0.747,-156.87396c0,0 27.12407,9.30035 82.12365,7.13018c45.53032,-1.79654 115.47164,-63.23309 157.38007,-35.1894c92.53284,61.91982 348.8959,184.66186 348.8959,184.66186z" fill="url(#color-5)" stroke="none"/><path d="M244.03213,-10.97508c-38.53477,-0.21646 -79.86348,14.1806 -111.41656,14.0825c-31.58412,-0.09819 -127.09003,-92.30262 -127.09003,-92.30262l633.91147,1.15948l0.77409,169.0117c0,0 -138.49171,-50.3672 -161.98028,-51.64546c-13.67777,-0.74435 -83.89846,34.79377 -131.30665,33.62633c-47.42139,-1.16776 -64.35726,-70.71248 -102.89203,-73.93194c0,0 38.6684,0.21722 -0.00001,0.00001z" fill="url(#color-6)" stroke="#000000"/><g stroke="none"><path d="M366.28327,171.4858v-37.06258c0,0 -0.61201,-15.50218 6.44566,-22.55984c6.65481,-6.65481 21.75412,-7.25137 21.75412,-7.25137h38.674c0,0 -5.63996,23.50704 -5.63996,34.44402c0,12.14542 4.83426,33.03404 4.83426,33.03404c0,0 -14.30746,5.32223 -33.64257,5.43854c-19.06387,0.11467 -32.4255,-6.04281 -32.4255,-6.04281z" fill="#c349b3"/><path d="M439.1865,170.47867c0,0 -5.43854,-18.43537 -5.43854,-31.42262c0,-11.24451 6.24424,-34.44402 6.24424,-34.44402h38.67399c0,0 15.09931,0.59657 21.75412,7.25138c7.05766,7.05765 6.44567,22.55983 6.44567,22.55983v37.06257c0,0 -13.50808,-6.9902 -34.28384,-6.44566c-19.42489,0.50913 -33.39565,5.43854 -33.39565,5.43854z" data-paper-data="{&quot;index&quot;:null}" fill="#af63c7"/><path d="M506.86599,177.52862v37.06258c0,0 0.61199,15.50217 -6.44567,22.55983c-6.65481,6.65481 -21.75412,7.25138 -21.75412,7.25138h-38.67399c0,0 5.63995,-17.9772 5.63995,-35.04831c0,-15.863 -4.63281,-31.82548 -4.63281,-31.82548c0,0 12.3084,-5.19058 31.58281,-5.63996c17.27865,-0.40286 34.28384,5.63996 34.28384,5.63996z" data-paper-data="{&quot;index&quot;:null}" fill="#5f79e1"/><path d="M433.96276,179.34146c0,0 4.4314,15.78166 4.4314,32.22833c0,17.11804 -5.63996,32.83262 -5.63996,32.83262h-38.67399c0,0 -15.09932,-0.59657 -21.75413,-7.25138c-7.05766,-7.05767 -6.44566,-22.55983 -6.44566,-22.55983v-37.06258c0,0 14.36466,6.61326 33.43265,6.44566c18.72762,-0.1646 34.6497,-4.63282 34.6497,-4.63282z" data-paper-data="{&quot;index&quot;:null}" fill="#8072d3"/></g></g></g></svg>