<svg xmlns="http://www.w3.org/2000/svg" viewBox="0 0 2048 2048" width="32" height="32" fill="none"><path d="M1600 1152q93 0 174 35t143 96 96 142 35 175q0 93-35 174t-96 143-142 96-175 35q-93 0-174-35t-143-96-96-142-35-175q0-93 35-174t96-143 142-96 175-35zm-320 448q0 66 25 124t68 102 102 69 125 25q47 0 92-13t84-40l-443-443q-26 39-39 84t-14 92zm587 176q26-39 39-84t14-92q0-66-25-124t-69-101-102-69-124-26q-47 0-92 13t-84 40l443 443zm-774 125q22 36 48 69t57 62q-43 8-86 12t-88 4q-141 0-272-36t-244-104-207-160-161-207-103-245-37-272q0-141 36-272t104-244 160-207 207-161T752 37t272-37q141 0 272 36t244 104 207 160 161 207 103 245 37 272q0 44-4 87t-12 87q-54-59-118-98l4-38q2-19 2-38 0-130-38-256h-362q8 62 11 123t5 124q-33 3-65 10t-64 18v-39q0-60-4-118t-12-118H657q-9 64-13 127t-4 129q0 65 4 128t13 128h446q-37 59-60 128H679q8 37 23 89t37 109 51 113 64 101 78 72 92 28q18 0 35-5t34-14zm739-1261q-38-81-91-152t-120-131-143-104-162-75q36 49 64 105t51 115 40 121 29 121h332zm-808-512q-49 0-91 27t-78 73-65 101-51 113-37 109-23 89h690q-8-37-23-89t-37-109-51-113-64-101-78-72-92-28zm-292 50q-85 29-162 74T427 357 308 487t-92 153h332q12-59 28-120t39-121 52-116 65-105zm-604 846q0 130 38 256h362q-8-64-12-127t-4-129q0-65 4-128t12-128H166q-38 126-38 256zm88 384q38 81 91 152t120 131 143 104 162 75q-36-49-65-105t-51-115-39-121-29-121H216z" fill="#101010"/></svg>