<svg viewBox="18,0,300,359" xmlns="http://www.w3.org/2000/svg" xmlns:xlink="http://www.w3.org/1999/xlink" overflow="hidden"><defs><filter id="fx0" x="-10%" y="-10%" width="120%" height="120%" filterUnits="userSpaceOnUse" primitiveUnits="userSpaceOnUse"><feComponentTransfer color-interpolation-filters="sRGB"><feFuncR type="discrete" tableValues="0 0"/><feFuncG type="discrete" tableValues="0 0"/><feFuncB type="discrete" tableValues="0 0"/><feFuncA type="linear" slope="0.4" intercept="0"/></feComponentTransfer><feGaussianBlur stdDeviation="7.77778 7.77778"/></filter><filter id="fx1" x="-10%" y="-10%" width="120%" height="120%" filterUnits="userSpaceOnUse" primitiveUnits="userSpaceOnUse"><feComponentTransfer color-interpolation-filters="sRGB"><feFuncR type="discrete" tableValues="0 0"/><feFuncG type="discrete" tableValues="0 0"/><feFuncB type="discrete" tableValues="0 0"/><feFuncA type="linear" slope="0.4" intercept="0"/></feComponentTransfer><feGaussianBlur stdDeviation="7.81235 7.81116"/></filter><clipPath id="clip2"><rect x="476" y="170" width="320" height="383"/></clipPath><linearGradient x1="545.449" y1="342.189" x2="607.551" y2="512.811" gradientUnits="userSpaceOnUse" spreadMethod="reflect" id="fill3"><stop offset="0" stop-color="#5C68FE"/><stop offset="0.83" stop-color="#5693E4"/><stop offset="1" stop-color="#5693E4"/></linearGradient><linearGradient x1="34.3778" y1="147.512" x2="92.6222" y2="-12.5125" gradientUnits="userSpaceOnUse" spreadMethod="reflect" id="fill4"><stop offset="0" stop-color="#61A2F9"/><stop offset="0.18" stop-color="#61A2F9"/><stop offset="0.91" stop-color="#3159D7"/><stop offset="1" stop-color="#3159D7"/></linearGradient><clipPath id="clip5"><rect x="-7.5" y="-7.5" width="128" height="136"/></clipPath><clipPath id="clip6"><rect x="0" y="0" width="113" height="123"/></clipPath><linearGradient x1="111.201" y1="-9.12131" x2="15.7986" y2="156.121" gradientUnits="userSpaceOnUse" spreadMethod="reflect" id="fill7"><stop offset="0" stop-color="#61A2F9"/><stop offset="0.18" stop-color="#61A2F9"/><stop offset="0.91" stop-color="#7DB3FB"/><stop offset="1" stop-color="#7DB3FB"/></linearGradient><clipPath id="clip8"><rect x="-7.53331" y="-7.53219" width="128.067" height="132.064"/></clipPath><clipPath id="clip9"><rect x="0" y="0" width="113" height="117"/></clipPath><linearGradient x1="517.026" y1="215.622" x2="635.974" y2="357.378" gradientUnits="userSpaceOnUse" spreadMethod="reflect" id="fill10"><stop offset="0" stop-color="#7E51FD"/><stop offset="0.23" stop-color="#7E51FD"/><stop offset="1" stop-color="#5693E4"/></linearGradient></defs><g clip-path="url(#clip2)" transform="translate(-476 -170)"><path d="M513 354 639.983 354C639.989 403 639.994 452 640 501 594.704 483.592 558.944 456.642 537.777 432.142 516.61 407.642 517.646 377.984 513 354Z" fill="url(#fill3)" fill-rule="evenodd"/><path d="M48.2206 0 127 0 127 0 127 135 0 135 0 48.2206C-8.59365e-15 21.5891 21.5891-8.59365e-15 48.2206-1.71873e-14Z" fill="url(#fill4)" fill-rule="evenodd" transform="matrix(-1 0 0 1 767 219)"/><g clip-path="url(#clip5)" filter="url(#fx0)" transform="matrix(2 0 0 2 571 308)"><g clip-path="url(#clip6)"><path d="M0 0 64.7612 0C64.7642 24.99 64.7671 49.98 64.77 74.97 41.6692 66.092 23.4313 52.3475 12.6363 39.8525 1.84135 27.3575 2.36928 12.232 0 0Z" fill="#FF0000" fill-rule="evenodd" transform="matrix(-1 0 0 1 88.7869 24.0015)"/></g></g><path d="M0 0 126.983 0C126.989 49 126.994 98 127 147 81.7044 129.592 45.9438 102.642 24.7771 78.1421 3.61048 53.6421 4.64565 23.9842 0 0Z" fill="url(#fill7)" fill-rule="evenodd" transform="matrix(-1 0 0 1 767 354)"/><g clip-path="url(#clip8)" filter="url(#fx1)" transform="matrix(1.99115 0 0 1.99145 476 170)"><g clip-path="url(#clip9)" transform="matrix(1 0 0 1 0 -1.42109e-14)"><path d="M48.6729 23.9273 89.0289 23.9273 89.0289 23.9273 89.0289 93.0728 23.9711 93.0728 23.9711 48.6253C23.9711 34.9849 35.0304 23.9273 48.6729 23.9273Z" fill="#FF0000" fill-rule="evenodd"/></g></g><path d="M561.221 219 640 219 640 219 640 354 513 354 513 267.221C513 240.589 534.589 219 561.221 219Z" fill="url(#fill10)" fill-rule="evenodd"/></g></svg>