<svg width="466" height="720" xmlns="http://www.w3.org/2000/svg" xmlns:xlink="http://www.w3.org/1999/xlink" overflow="hidden"><defs><clipPath id="clip0"><rect x="0" y="0" width="466" height="720"/></clipPath></defs><g clip-path="url(#clip0)"><rect x="0" y="0" width="466" height="720.484" fill="#FFFFFF" fill-opacity="0"/><path d="M0 77.6128C0 34.7484 34.7733-2.29318e-14 77.6684-4.58636e-14L388.332 0C431.227-2.29318e-14 466 34.7484 466 77.6128L466 642.872C466 685.736 431.227 720.484 388.332 720.484L77.6684 720.484C34.7733 720.484 0 685.736 0 642.872Z" fill-rule="evenodd"/><path d="M29 87.5543C29 60.1712 51.2143 37.9728 78.617 37.9728L387.383 37.9728C414.786 37.9728 437 60.1712 437 87.5543L437 631.931C437 659.314 414.786 681.512 387.383 681.512L78.617 681.512C51.2143 681.512 29 659.314 29 631.931Z" fill="#FFFFFF" fill-rule="evenodd"/><path d="M213 623.054C213 611.74 221.954 602.569 233 602.569 244.046 602.569 253 611.74 253 623.054 253 634.368 244.046 643.539 233 643.539 221.954 643.539 213 634.368 213 623.054Z" fill-rule="evenodd"/></g></svg>