<svg xmlns="http://www.w3.org/2000/svg" width="64" height="64"><path d="M29.986 63.185L25.12 60.95l-9.57-4.383-1.69-.767-10.98-5.008V9.566l.26-.082L31.99 0l29.12 9.593-.04 41.168-18.298 8.32-10.938 4.916c-.066-.004-.898-.37-1.85-.81z" fill="#97c767"/><path d="M27.895 62.206l-7.48-3.425-4.745-2.196-1.8-.824-4.102-1.847-5.067-2.317-1.71-.807c-.08-.06-.1-3.124-.1-14.85l.053-20.566.053-5.8L31.964.045l3.2 1.035-.704.232c-.387.128-.704.253-.704.278s.335.156.744.3l.744.244L36.73 1.6l3.426 1.128c1.884.62 3.408 1.157 3.385 1.193s-.326.167-.675.29l-.635.226 1.646.532.555-.212c.305-.116.682-.226.837-.243.207-.023 1.523.38 4.98 1.524l4.697 1.555-.434.185a39.58 39.58 0 0 0-.957.429c-.288.134-.758.344-1.046.467-.327.14-.478.24-.402.27.532.2 1.585.53 1.697.53.076 0 .368-.103.648-.23s.655-.275.832-.33a15.51 15.51 0 0 0 .982-.383l.66-.28 1.954.65c1.075.358 2.018.65 2.095.65.134 0 .14 1.02.12 20.593l-.02 20.593-17.453 7.93L31.85 64c-.03-.002-1.8-.8-3.955-1.795zM24.66 25.94l-.022-1.226-.282-.142c-.355-.18-2.233-1.06-2.797-1.31l-.424-.19.044 2.497 1.69.792 1.75.8c.034.004.052-.545.04-1.22zm-3.6-4.246v-1.21l-.342-.15-.885-.396-.543-.247v2.463l.784.368c.43.202.83.37.885.374.076.005.1-.286.1-1.203zm7.883-1.208c.506-.223.938-.436.962-.473s.44-.235.925-.442.897-.39.916-.4c.03-.03-.645-.357-1.493-.72l-.34-.145-.962.413c-.53.227-.994.413-1.034.413-.096 0-1.893-.802-1.978-.882-.037-.035.352-.238.865-.45s.93-.4.93-.438c0-.057-1.687-.805-1.8-.802-.044.001-.514.18-1.043.396l-.963.394.473.21c1.21.535 1.407.633 1.376.682-.018.03-.47.23-1.003.447s-.96.405-.945.418c.1.1 3.91 1.79 4.04 1.794.1.002.578-.18 1.084-.403zm-20.59-2.05v-1.25l-.543-.247-.885-.396-.342-.15v2.528l.824.378c.453.208.85.38.885.382s.06-.558.06-1.246zm30.824-.648c.454-.203.88-.414.946-.468s.475-.256.908-.448.76-.374.724-.404-.45-.2-.92-.4c-.776-.313-.882-.337-1.126-.252-.524.182-3.527 1.485-3.526 1.53.001.076 1.793.802 2 .806.1.002.552-.162 1.005-.365zm7.56-1.742c.415-.188.76-.378.767-.422s-.397-.235-.9-.425l-.912-.344-.854.376c-.47.207-.854.4-.854.426 0 .064 1.683.72 1.864.726.074.003.474-.15.89-.337zm-21.312-.933c.3-.117.543-.236.543-.266s-.38-.21-.843-.402-.843-.377-.845-.41.08-.095.18-.135L27 12.914c.51-.193.91-.386.89-.428-.07-.154-1.485-.685-1.692-.635-.177.042-2.217.83-3.234 1.248-.207.085-.423.155-.478.155-.146 0-2.08.743-2.08.798.001.025.426.225.945.444l1.825.776.882.38.405-.162.948-.374zm17.353-.696c.376-.164.712-.325.747-.357s-.38-.228-.925-.436l-.988-.377-.925.4c-.672.3-.885.415-.78.455l1.005.396c.585.23.912.32 1.02.28a32.74 32.74 0 0 0 .845-.359zm7.563-.012c.444-.206.78-.4.744-.43s-.47-.203-.965-.383l-.9-.328-.843.374c-.464.206-.825.392-.803.415.046.046 1.808.716 1.9.723.033.002.423-.164.868-.37zm-17.42-.764c.467-.184.848-.356.848-.382s-.4-.205-.89-.4-.86-.38-.824-.416.43-.21.87-.385c.613-.245.766-.334.643-.376-.088-.03-.775-.307-1.525-.615-1.987-.816-1.864-.798-2.843-.424-.45.172-.82.332-.82.354s.78.346 1.732.718 1.748.703 1.77.737-.36.217-.847.4-.884.367-.884.39c0 .057 1.62.707 1.785.716.075.004.52-.143.985-.327zm13.305-.723c.426-.184.828-.38.894-.434s.438-.236.826-.404.678-.328.643-.357-.437-.185-.894-.346l-.832-.293-.752.32c-.414.176-.795.32-.846.32-.198 0-1.853.747-1.8.81.084.082 1.717.706 1.866.714.06.003.46-.145.885-.33zm-30.172-1.55c.493-.174.88-.34.863-.37s-.358-.2-.757-.356l-.724-.304-.89.305c-.5.168-.907.33-.927.363-.034.056 1.405.723 1.495.694a217.12 217.12 0 0 0 .94-.331zm22.445.025c.456-.183.8-.36.764-.392s-.45-.203-.92-.38l-.853-.32-.795.316c-.437.174-.824.343-.86.377-.06.06 1.467.704 1.712.722.066.005.494-.14.95-.324zm14.753.02a11.73 11.73 0 0 1 .649-.281c.253-.087.08-.19-.824-.492l-.878-.292-.7.3c-.38.165-.7.324-.7.353s.118.093.26.14.515.18.824.3.626.205.704.207.367-.1.643-.226zm-41.592-1.1L13.64 9.6c.014-.014-.33-.176-.763-.36l-.787-.336-1.046.368-1.997.697c-.523.18-.922.358-.885.393.09.088 1.33.635 1.446.638.05.001.973-.308 2.05-.686zm9.42-.747c.962-.338 1.75-.633 1.75-.655s-.352-.177-.784-.345l-.784-.304-.684.238c-1.433.498-2.765.984-2.888 1.052-.108.06-.097.084.073.15a44.72 44.72 0 0 1 .764.321c.3.133.617.222.684.2l1.87-.657zm13.747.307l2.178-.857c.217-.066.168-.17-.12-.254a13.89 13.89 0 0 1-.784-.277l-1.43-.54c-.5-.187-.888-.36-.864-.384s.766-.32 1.65-.658l1.605-.615-1.622-.6-1.5.54-1.7.615c-.182.07-.127.103.563.354.81.295.986.397.798.464l-.83.31-.717.27.854.315c.47.173.828.337.797.365s-.41.186-.844.352-.766.324-.738.352c.05.05 1.56.643 1.66.65.03.002.5-.18 1.046-.402zm-9.174-1.96l1.74-.62c.542-.2.958-.37.925-.397-.097-.083-1.425-.56-1.552-.558-.064.001-.515.148-1 .326l-1.543.554c-1.027.36-1.022.34-.172.67.413.16.772.293.8.295s.388-.12.804-.27zm19.436-.665c.41-.163.72-.32.685-.353s-.428-.176-.876-.32l-.814-.264-.734.275c-.404.15-.734.296-.735.322-.001.037 1.53.61 1.687.63.02.003.375-.128.786-.29zM35.027 4.5c.134-.075.128-.09-.07-.165-.12-.045-.47-.16-.778-.253l-.56-.17-.67.24c-2.266.812-2.44.884-2.28.947.087.035.413.158.724.273l.565.21 1.462-.5c.804-.275 1.528-.537 1.61-.582zm5.173.547c0-.024-.335-.153-.745-.288l-.746-.246-.662.246c-.364.136-.662.267-.662.292s.333.154.74.287l.74.242.667-.245c.367-.135.667-.265.667-.288zm-15.99-.29c1.107-.398 1.067-.337.387-.606-.332-.13-.68-.24-.774-.243s-.524.113-.957.257c-.816.272-.84.31-.294.485.118.038.36.123.537.2.426.16.423.16 1.1-.083zm4.308-.32c.903-.293 1.61-.56 1.575-.596s-.375-.17-.75-.3l-.684-.238-.684.23c-.376.126-.756.263-.845.304s-.215.072-.282.068c-.17-.01-1.448.423-1.448.5 0 .042 1.27.544 1.442.57.02.003.773-.234 1.675-.527z" fill="#88b858"/><path d="M27.895 62.206l-7.48-3.425-4.745-2.196-1.8-.824-4.102-1.847-5.067-2.317-1.71-.807c-.08-.06-.1-3.512-.1-16.794l.04-16.72c.02 0 .346.142.722.316 1.13.522 1.016.62 1-.848l-.022-1.268-1.645-.734-.004-5.175.26-.057c.144-.032 1.058-.325 2.03-.652l13.393-4.37c.082 0 .435.112.785.25l.636.25 1.75-.544-.642-.23c-.353-.126-.67-.255-.705-.286-.052-.046 7.697-2.652 10.76-3.62l.804-.254 3.056 1.032-.704.23c-.387.126-.704.25-.704.276s.345.16.766.3l.766.252 1.564-.525 3.333 1.115 3.36 1.142c.015.015-.2.11-.478.2-1.008.366-1.006.308-.022.642l.885.3.643-.24c.354-.132.716-.256.805-.276s2.043.585 4.343 1.343l4.684 1.54c.276.09.503.173.503.185s-.65.306-1.448.652-1.448.65-1.448.674.417.188.925.363.898.34.864.368-.375.19-.758.356c-.475.208-.77.292-.925.264-.41-.073-1.79-.58-1.77-.65.01-.037.345-.206.742-.376.662-.283.705-.314.52-.384a68.57 68.57 0 0 0-.965-.341l-.764-.265-1.567.662-1.588.683c-.01.01.278.123.642.248a13.94 13.94 0 0 1 1.129.446c.256.12.835.337 1.287.483l1.826.614c.553.192 1.035.35 1.07.35s.633-.258 1.327-.574l1.537-.7c.343-.146.297-.18-.718-.514-.42-.14-.793-.278-.828-.3s.284-.2.708-.397l.772-.34.98.317 2.035.65 1.055.33.696-.322c.383-.177.75-.322.816-.322.105 0 .117 2.433.1 20.593l-.02 20.593-17.453 7.93L31.85 64c-.03-.002-1.8-.8-3.955-1.795zm-3.217-36.29V24.66l-1.77-.827v-2.546l-.605-.276-1.462-.688-1.204-.56-.347-.15v5.115l.86.386c.472.212.898.422.945.466.106.1 3.345 1.567 3.484 1.58.077.007.1-.29.1-1.244zm6.273-4.493l1.988-.865c.54-.235.993-.456 1.005-.49.02-.06-3.652-1.705-4-1.8-.09-.022-.58.14-1.122.37l-.96.41-.366-.14a21.44 21.44 0 0 1-.969-.414l-.603-.274.983-.405c.54-.223.968-.43.95-.46s-.85-.415-1.848-.854c-1.68-.74-2-.92-1.693-.92a.68.68 0 0 0 .261-.074c.252-.134 1.424-.57 1.53-.57.057 0 .49.163.963.362s.9.362.928.362.5.185 1.026.41l.957.41.906-.378c.498-.208.936-.406.972-.44.057-.054-1.605-.8-1.773-.806-.035.001-.5-.183-1.033-.408l-.97-.41-1.975.788-.876-.368c-.482-.203-.877-.4-.878-.417s.822-.368 1.828-.76l1.9-.76c.07-.06-1.613-.76-1.8-.744-.066.005-.736.25-1.488.544l-1.915.74-.547.206-.82-.346c-.45-.2-.856-.372-.9-.404s-.442-.21-.885-.398l-.828-.36c-.013-.012.393-.176.903-.364s.91-.368.892-.398-.38-.195-.804-.366c-.586-.237-.74-.33-.64-.384.11-.06 3.083-1.1 3.515-1.24.077-.023.14-.068.14-.1 0-.092-1.47-.648-1.712-.648-.12 0-.61.146-1.084.325l-1.745.647-.905.346c-.013.013.323.164.747.335s.785.335.803.364-.3.172-.7.316l-.943.338c-.183.068-.133.103.563.398.42.178.793.35.828.384s-.417.23-1.005.44l-2.01.716c-.518.184-.916.36-.885.4.158.152 1.6.717 1.743.683.16-.04.323-.1 1.25-.458.243-.094.5-.2.573-.212.17-.052 1.94.7 1.853.797-.036.036-.48.225-.985.42l-.92.353.362.157.82.368c.252.116.505.21.563.2s.504-.163 1-.362.932-.36.99-.36c.15 0 1.864.746 1.864.812 0 .03-.434.224-.965.43s-.965.406-.965.44c0 .064 1.633.8 1.773.8.176 0 1.93.833 1.87.89-.035.034-.474.232-.975.44-.522.218-.88.4-.84.45s1.082.523 2.318 1.076l2.93 1.32c.376.172.72.317.764.32s.533-.19 1.086-.43zm-21.988-4.02l1.385.65c.804.384 1.45.672 1.507.672.018 0 .034-.545.034-1.2v-1.2l-.704-.325c-.387-.18-.867-.39-1.066-.472-.354-.144-1.25-.574-2.212-1.063a24.9 24.9 0 0 0-.906-.435l-.423-.2.042 5.153 1.69.77.044-2.615zm10.084-.454c-.11-.07-.52-.256-.907-.415l-.706-.3.044 2.505 1.69.76.08-2.435zm22.168 1.61c.46-.214.834-.404.834-.42s-.398-.188-.885-.378-.885-.37-.885-.4.37-.216.824-.415.81-.395.796-.437-.465-.25-.997-.462l-.968-.386-1.916.827c-1.054.455-1.888.855-1.853.9s.907.405 1.94.823l1.92.804c.064.064.257-.01 1.192-.445zm-20.434-.842c-.086-.065-.213-.115-.282-.112s-.017.056.116.117c.312.143.36.14.166-.005zm25.992-1.658c.504-.228.886-.44.85-.472-.085-.077-1.814-.723-1.935-.723-.134 0-1.8.737-1.8.796 0 .037 1.748.77 1.924.805.02.004.446-.18.95-.407zm-4.13-1.557c.467-.2.968-.43 1.114-.515.246-.142.797-.377 2.195-.937a32.97 32.97 0 0 0 1.231-.533c.368-.17.683-.307.7-.307a5.18 5.18 0 0 0 .954-.468c.022-.036-.395-.22-.928-.41-.936-.334-.978-.342-1.262-.226l-1.42.578a41.05 41.05 0 0 0-1.85.807c-.398.192-1.353.604-2.122.916-1.36.552-1.52.628-1.45.677a50.48 50.48 0 0 0 1.936.773c.03.004.435-.156.902-.355zm7.756-.094c.516-.235.79-.4.724-.436-.057-.032-.512-.208-1-.39l-.906-.333-.847.378c-.466.208-.818.406-.783.44.085.083 1.72.704 1.874.713.066.004.493-.163.95-.37zm-17.417-.76c.476-.193.864-.37.864-.392s-.4-.2-.89-.392-.874-.366-.855-.384.422-.19.897-.38l.863-.347-.933-.355c-.513-.195-.932-.373-.93-.395.002-.04 1.55-.663 1.768-.7.236-.05 3.54-1.34 3.537-1.38-.001-.023-.78-.328-1.732-.677s-1.702-.66-1.667-.69.76-.32 1.612-.643 1.548-.61 1.548-.638c0-.058-1.452-.57-1.615-.57-.087 0-2.414.81-3.37 1.175-.07.026.232.176.7.353.457.17.845.32.862.34s-.347.17-.81.34-.822.338-.8.375.158.102.3.144c.778.232 1.484.572 1.186.572-.13 0-1.368.478-1.502.58-.1.075-.897.4-1.468.6-.417.145-.46.137-1.465-.254l-.772-.3-.796.297c-.438.163-.823.323-.856.355s.708.37 1.646.75 1.715.723 1.727.76-.363.216-.833.395l-.855.327.836.346c.46.2.872.375.917.4.15.12 1.85.797 1.93.77a72.9 72.9 0 0 0 .945-.379zm-20.948-.754c.496-.177.9-.34.9-.364s-.362-.2-.805-.393l-.805-.35-.864.302c-1.164.407-1.14.388-.69.587l.83.372c.243.1.462.193.486.184s.45-.16.945-.338zm4.11-1.534c.504-.183.882-.354.84-.38s-.408-.19-.814-.367l-.74-.32-.966.335c-.53.184-.966.358-.966.386s.316.186.703.35.737.33.777.368.113.044.16.014.5-.204 1.004-.387zm-6.927-.2c2.562-.857 4.532-1.55 4.5-1.585-.017-.017-.343-.166-.726-.332s-.705-.334-.717-.375.807-.35 1.82-.687l1.84-.614-1.416-.6-1.977.64-2.922.932c-.52.16-.945.318-.944.348s.292.18.647.33.663.302.683.335-.85.355-1.933.716-1.987.684-2.008.718c-.027.044 1.23.665 1.466.724.012.003.772-.245 1.69-.552zm29.152.33c.278-.125.624-.275.77-.333s.237-.132.2-.163-.47-.205-.962-.387l-.898-.33-.872.35c-.48.193-.872.375-.872.405s.18.12.402.203l.804.308c.557.22.84.21 1.426-.052zm3.667-1.558l.83-.34-.89-.322c-.5-.177-.89-.348-.89-.38s.345-.19.768-.355.756-.3.74-.324a15.62 15.62 0 0 0-.908-.342l-.882-.315-.75.29c-.413.16-.752.328-.754.372s.345.203.77.353.774.298.774.33-.317.178-.704.325-.73.29-.763.317c-.045.038 1.567.69 1.79.722.022.003.414-.146.87-.333zM27.493 8.522l.603-.214c.143-.048.13-.07-.12-.205-.155-.083-.336-.155-.402-.16s-.297-.088-.512-.185l-.392-.177.9-.318c.5-.175.878-.33.864-.345s-.388-.164-.83-.332l-.802-.306-.876.312-1.666.59c-1.155.408-1.143.377-.284.706 2.748 1.053 2.585 1.002 2.844.894.133-.055.44-.172.684-.26zm17.675-1.275c.41-.163.72-.32.685-.35s-.444-.19-.912-.353c-.928-.326-.828-.328-1.724.033-.088.036-.278.11-.422.163s-.26.127-.26.162c0 .066 1.553.623 1.768.634.065.003.455-.127.866-.29zm-3.67-1.252c.392-.144.712-.28.713-.305s-.37-.164-.824-.31-.865-.3-.915-.34c-.14-.11-1.484-.55-1.684-.55-.285 0-1.68.532-1.57.6.136.084 3.32 1.156 3.456 1.164.06.003.432-.11.824-.255zM25.554 5.46l2.6-.858c2.425-.79 2.337-.703 1.124-1.12l-.657-.225-1.638.588-1.59-.572-1.67.534c-.92.294-1.7.56-1.733.593s.31.194.764.358l1.55.57.756.277c.018.003.235-.064.483-.15zm8.113-.418l1.612-.595c.014-.013-.355-.15-.82-.305l-.843-.282-1.63.556-1.66.587c-.017.017.125.088.316.158l.75.282c.22.085.466.158.544.162s.856-.25 1.73-.563z" fill="#b7835a"/><path d="M29.664 63L15.63 56.546l-.044-2.486-.753-.335-.883-.385c-.116-.044-.13.082-.13 1.174 0 .947-.023 1.214-.1 1.183l-1.9-.885-2.614-1.205-.804-.36-.08-2.53-1.69-.76-.08 2.47-1.126-.53-1.778-.825-.65-.295-.045-3.42c-.04-3.1.015-17.132.068-17.132a21.85 21.85 0 0 1 .802.362c.43.2.793.362.8.362s.03-1.15.03-2.557v-2.557l-.704-.3c-.387-.17-.78-.356-.87-.412-.166-.1-.168-.137-.168-3.97l.025-3.868c.014 0 .334.142.7.316 1.13.522 1.016.62 1-.848l-.022-1.268-1.645-.734-.004-5.175.26-.057c.144-.032 1.058-.325 2.03-.652l13.393-4.37c.082 0 .435.112.785.25l.636.25 1.75-.544-.642-.23c-.353-.126-.67-.255-.705-.286-.052-.046 7.697-2.652 10.76-3.62l.804-.254 3.056 1.032-.704.23c-.387.126-.704.25-.704.276s.345.16.766.3l.766.252 1.564-.525 3.333 1.115 3.36 1.142c.015.015-.2.11-.478.2-1.008.366-1.006.308-.022.642l.885.3.643-.24c.354-.132.716-.256.805-.276s2.043.585 4.343 1.343l4.684 1.54c.276.09.503.173.503.185s-.65.306-1.448.652-1.448.65-1.448.674.417.188.925.363.898.34.864.368-.375.19-.758.356c-.475.208-.77.292-.925.264-.41-.073-1.79-.58-1.77-.65.01-.037.345-.206.742-.376.662-.283.705-.314.52-.384a68.57 68.57 0 0 0-.965-.341l-.764-.265-1.567.662-1.588.683c-.01.01.278.123.642.248a13.94 13.94 0 0 1 1.129.446c.256.12.835.337 1.287.483l1.826.614c.553.192 1.035.35 1.07.35s.633-.258 1.327-.574l1.537-.7c.343-.146.297-.18-.718-.514-.42-.14-.793-.278-.828-.3s.284-.2.708-.397l.772-.34.98.317 2.035.65 1.055.33.696-.322c.383-.177.75-.322.815-.322.105 0 .12 2.452.12 20.576v20.576L31.84 63.998a110.57 110.57 0 0 1-2.176-1.008zm-1.385-7.072l-.022-1.25-1.73-.8v2.534l.824.373c.453.205.852.375.887.377s.052-.558.04-1.245zm3.637-.886v-1.25l-.583-.267-1.227-.568-1.697-.765c-.018 0-.032.57-.03 1.267l.002 1.267 1.707.78 1.767.784c.033.003.06-.558.06-1.246zM22.8 53.418l-.022-1.256-.764-.348c-.42-.192-.81-.35-.865-.353-.076-.003-.1.287-.1 1.197 0 .873.027 1.22.1 1.266.15.096 1.538.737 1.61.744.034.003.052-.56.04-1.25zm-12.7-3.21v-1.25l-.704-.326-.885-.396-.18-.07v2.543l.824.373c.453.205.852.374.885.375s.06-.56.06-1.248zm19.946-1.185v-1.23l-.22-.088a25.88 25.88 0 0 1-.845-.378l-.623-.29v2.45l.824.375.845.382c.01.003.02-.547.02-1.223zm-14.477-1.47v-1.25l-.704-.326L14 45.58l-.18-.07v2.543l.824.373c.453.205.852.374.885.375s.06-.56.06-1.248zm7.22-1.857l-.022-1.257-1.568-.72-1.75-.792-.18-.073v2.538l1.67.772c.918.425 1.715.776 1.77.78.08.006.098-.27.08-1.25zm5.43-1.32c-.073-.065-3.45-1.606-3.518-1.606-.026 0-.037.568-.025 1.262l.022 1.262 3.54 1.626.022-1.245c.012-.685-.006-1.27-.04-1.3zm-14.5-.225v-1.274l-.824-.376c-.453-.207-.852-.376-.887-.375s-.052.568-.04 1.26l.022 1.26.845.385.865.39c.01.002.02-.57.02-1.27zm1.85-1.743V41.16l-.422-.19-1.347-.61v2.5l.824.392c.453.215.852.395.885.398s.06-.555.06-1.24zm-3.62-1.638v-1.277l-1.74-.794-1.8-.82c-.118-.045-.088 2.46.03 2.535.083.054 3.434 1.614 3.5 1.63.01.003.02-.57.02-1.272zm19.946-3.775v-1.27l-.755-.336-.885-.386c-.116-.044-.13.085-.13 1.2v1.26l.824.392c.453.215.852.395.885.398s.06-.566.06-1.265zm-7.24-.72L24.676 35 21.1 33.363l-.022 1.22c-.017.9.004 1.245.08 1.317s3.398 1.63 3.5 1.64c.01.001.02-.568.02-1.265zM19.21 33.78v-1.27l-1.717-.782-1.77-.782c-.03 0-.053.557-.053 1.237v1.237l.422.18c.354.152 1.21.55 2.795 1.303l.302.14c.01.003.02-.566.02-1.264zm-9.026-1.59l-.022-1.252-1.752-.8-1.8-.8c-.02 0-.038.56-.038 1.247v1.247l.56.25c.308.138 1.077.498 1.71.8s1.195.55 1.25.553c.08.003.098-.273.08-1.247zm1.707-1.753v-1.235l-.805-.374c-.443-.205-.823-.374-.845-.374s-.04.544-.04 1.208v1.208l.824.393.845.4c.01.004.02-.55.02-1.228zm12.788-4.522V24.66l-1.77-.827v-2.546l-.605-.276-1.462-.688-1.204-.56-.347-.15v5.115l.86.386c.472.212.898.422.945.466.106.1 3.345 1.567 3.484 1.58.077.007.1-.29.1-1.244zM10.12 24.468v-1.252l-.848-.397c-.466-.218-.864-.397-.885-.397s-.037.563-.037 1.25v1.25l.824.392c.453.215.852.395.885.398s.06-.557.06-1.246zm20.83-3.046l1.988-.865c.54-.235.993-.456 1.005-.49.02-.06-3.652-1.705-4-1.8-.09-.022-.58.14-1.122.37l-.96.41-.366-.14a21.44 21.44 0 0 1-.969-.414l-.603-.274.983-.405c.54-.223.968-.43.95-.46s-.85-.415-1.848-.854c-1.68-.74-2-.92-1.693-.92a.68.68 0 0 0 .261-.074c.252-.134 1.424-.57 1.53-.57.057 0 .49.163.963.362s.9.362.928.362.5.185 1.026.41l.957.41.906-.378c.498-.208.936-.406.972-.44.057-.054-1.605-.8-1.773-.806-.035.001-.5-.183-1.033-.408l-.97-.41-1.975.788-.876-.368c-.482-.203-.877-.4-.878-.417s.822-.368 1.828-.76l1.9-.76c.07-.06-1.613-.76-1.8-.744-.066.005-.736.25-1.488.544l-1.915.74-.547.206-.82-.346c-.45-.2-.856-.372-.9-.404s-.442-.21-.885-.398l-.828-.36c-.013-.012.393-.176.903-.364s.91-.368.892-.398-.38-.195-.804-.366c-.586-.237-.74-.33-.64-.384.11-.06 3.083-1.1 3.515-1.24.077-.023.14-.068.14-.1 0-.092-1.47-.648-1.712-.648-.12 0-.61.146-1.084.325l-1.745.647-.905.346c-.013.013.323.164.747.335s.785.335.803.364-.3.172-.7.316l-.943.338c-.183.068-.133.103.563.398.42.178.793.35.828.384s-.417.23-1.005.44l-2.01.716c-.518.184-.916.36-.885.4.158.152 1.6.717 1.743.683.16-.04.323-.1 1.25-.458.243-.094.5-.2.573-.212.17-.052 1.94.7 1.853.797-.036.036-.48.225-.985.42l-.92.353.362.157.82.368c.252.116.505.21.563.2s.504-.163 1-.362.932-.36.99-.36c.15 0 1.864.746 1.864.812 0 .03-.434.224-.965.43s-.965.406-.965.44c0 .064 1.633.8 1.773.8.176 0 1.93.833 1.87.89-.035.034-.474.232-.975.44-.522.218-.88.4-.84.45s1.082.523 2.318 1.076l2.93 1.32c.376.172.72.317.764.32s.533-.19 1.086-.43zm-21.988-4.02l1.385.65c.804.384 1.45.672 1.507.672.018 0 .034-.545.034-1.2v-1.2l-.704-.325c-.387-.18-.867-.39-1.066-.472-.354-.144-1.25-.574-2.212-1.063a24.9 24.9 0 0 0-.906-.435l-.423-.2.042 5.153 1.69.77.044-2.615zm10.084-.454c-.11-.07-.52-.256-.907-.415l-.706-.3.044 2.505 1.69.76.08-2.435zm22.168 1.61c.46-.214.834-.404.834-.42s-.398-.188-.885-.378-.885-.37-.885-.4.37-.216.824-.415.81-.395.796-.437-.465-.25-.997-.462l-.968-.386-1.916.827c-1.054.455-1.888.855-1.853.9s.907.405 1.94.823l1.92.804c.064.064.257-.01 1.192-.445zm-20.434-.842c-.086-.065-.213-.115-.282-.112s-.017.056.116.117c.312.143.36.14.166-.005zm25.992-1.658c.504-.228.886-.44.85-.472-.085-.077-1.814-.723-1.935-.723-.134 0-1.8.737-1.8.796 0 .037 1.748.77 1.924.805.02.004.446-.18.95-.407zm-4.13-1.557c.467-.2.968-.43 1.114-.515.246-.142.797-.377 2.195-.937a32.97 32.97 0 0 0 1.231-.533c.368-.17.683-.307.7-.307a5.18 5.18 0 0 0 .954-.468c.022-.036-.395-.22-.928-.41-.936-.334-.978-.342-1.262-.226l-1.42.578a41.05 41.05 0 0 0-1.85.807c-.398.192-1.353.604-2.122.916-1.36.552-1.52.628-1.45.677a50.48 50.48 0 0 0 1.936.773c.03.004.435-.156.902-.355zm7.756-.094c.516-.235.79-.4.724-.436-.057-.032-.512-.208-1-.39l-.906-.333-.847.378c-.466.208-.818.406-.783.44.085.083 1.72.704 1.874.713.066.004.493-.163.95-.37zm-17.417-.76c.476-.193.864-.37.864-.392s-.4-.2-.89-.392-.874-.366-.855-.384.422-.19.897-.38l.863-.347-.933-.355c-.513-.195-.932-.373-.93-.395.002-.04 1.55-.663 1.768-.7.236-.05 3.54-1.34 3.537-1.38-.001-.023-.78-.328-1.732-.677s-1.702-.66-1.667-.69.76-.32 1.612-.643 1.548-.61 1.548-.638c0-.058-1.452-.57-1.615-.57-.087 0-2.414.81-3.37 1.175-.07.026.232.176.7.353.457.17.845.32.862.34s-.347.17-.81.34-.822.338-.8.375.158.102.3.144c.778.232 1.484.572 1.186.572-.13 0-1.368.478-1.502.58-.1.075-.897.4-1.468.6-.417.145-.46.137-1.465-.254l-.772-.3-.796.297c-.438.163-.823.323-.856.355s.708.37 1.646.75 1.715.723 1.727.76-.363.216-.833.395l-.855.327.836.346c.46.2.872.375.917.4.15.12 1.85.797 1.93.77a72.9 72.9 0 0 0 .945-.379zm-20.948-.754c.496-.177.9-.34.9-.364s-.362-.2-.805-.393l-.805-.35-.864.302c-1.164.407-1.14.388-.69.587l.83.372c.243.1.462.193.486.184s.45-.16.945-.338zm4.11-1.534c.504-.183.882-.354.84-.38s-.408-.19-.814-.367l-.74-.32-.966.335c-.53.184-.966.358-.966.386s.316.186.703.35.737.33.777.368.113.044.16.014.5-.204 1.004-.387zm-6.927-.2c2.562-.857 4.532-1.55 4.5-1.585-.017-.017-.343-.166-.726-.332s-.705-.334-.717-.375.807-.35 1.82-.687l1.84-.614-1.416-.6-1.977.64-2.922.932c-.52.16-.945.318-.944.348s.292.18.647.33.663.302.683.335-.85.355-1.933.716-1.987.684-2.008.718c-.027.044 1.23.665 1.466.724.012.003.772-.245 1.69-.552zm29.152.33c.278-.125.624-.275.77-.333s.237-.132.2-.163-.47-.205-.962-.387l-.898-.33-.872.35c-.48.193-.872.375-.872.405s.18.12.402.203l.804.308c.557.22.84.21 1.426-.052zm3.667-1.558l.83-.34-.89-.322c-.5-.177-.89-.348-.89-.38s.345-.19.768-.355.756-.3.74-.324a15.62 15.62 0 0 0-.908-.342l-.882-.315-.75.29c-.413.16-.752.328-.754.372s.345.203.77.353.774.298.774.33-.317.178-.704.325-.73.29-.763.317c-.045.038 1.567.69 1.79.722.022.003.414-.146.87-.333zM27.493 8.522l.603-.214c.143-.048.13-.07-.12-.205-.155-.083-.336-.155-.402-.16s-.297-.088-.512-.185l-.392-.177.9-.318c.5-.175.878-.33.864-.345s-.388-.164-.83-.332l-.802-.306-.876.312-1.666.59c-1.155.408-1.143.377-.284.706 2.748 1.053 2.585 1.002 2.844.894.133-.055.44-.172.684-.26zm17.675-1.275c.41-.163.72-.32.685-.35s-.444-.19-.912-.353c-.928-.326-.828-.328-1.724.033-.088.036-.278.11-.422.163s-.26.127-.26.162c0 .066 1.553.623 1.768.634.065.003.455-.127.866-.29zm-3.67-1.252c.392-.144.712-.28.713-.305s-.37-.164-.824-.31-.865-.3-.915-.34c-.14-.11-1.484-.55-1.684-.55-.285 0-1.68.532-1.57.6.136.084 3.32 1.156 3.456 1.164.06.003.432-.11.824-.255zM25.554 5.46l2.6-.858c2.425-.79 2.337-.703 1.124-1.12l-.657-.225-1.638.588-1.59-.572-1.67.534c-.92.294-1.7.56-1.733.593s.31.194.764.358l1.55.57.756.277c.018.003.235-.064.483-.15zm8.113-.418l1.612-.595c.014-.013-.355-.15-.82-.305l-.843-.282-1.63.556-1.66.587c-.017.017.125.088.316.158l.75.282c.22.085.466.158.544.162s.856-.25 1.73-.563z" fill="#72b147"/><path d="M29.664 63L15.63 56.546l-.044-2.486-.753-.335-.883-.385c-.116-.044-.13.082-.13 1.174 0 .947-.023 1.214-.1 1.183l-1.9-.885-2.614-1.205-.804-.36-.08-2.53-1.69-.76-.08 2.47-1.126-.53-1.778-.825-.65-.295-.045-3.42c-.04-3.1.015-17.132.068-17.132a21.85 21.85 0 0 1 .802.362c.43.2.793.362.8.362s.03-1.15.03-2.557v-2.557l-.704-.3c-.387-.17-.78-.356-.87-.412-.166-.1-.168-.137-.168-3.973-.001-2.77.024-3.86.087-3.835.048.02.438.2.865.4s.798.342.824.316.048-.606.048-1.29c0-1.15.01-1.238.14-1.188.077.03.475.205.884.39l.744.337v1.306c0 1.158.016 1.316.14 1.392.077.047.485.243.905.436l.764.35.022-1.24c.016-.915.048-1.238.12-1.235.054.002.84.36 1.747.794s1.676.774 1.71.755.06-.606.06-1.305v-1.27l-3.58-1.626-.044-2.582-.325-.13c-.18-.072-.295-.16-.26-.195s1.363-.497 2.948-1.026 2.922-1 2.97-1.05c.063-.063.004-.122-.21-.212-.164-.07-.505-.22-.758-.335l-.46-.2 1.87-.608c1.028-.334 1.87-.646 1.87-.693s-.326-.212-.724-.366-.724-.3-.724-.325.38-.168.845-.318.817-.297.784-.327-.323-.155-.644-.278-.583-.248-.583-.276.425-.2.945-.358l.945-.307 1.44.556.848-.264 2.75-.852.72.26c.396.143.735.285.755.316.034.056-2.682 1.003-4.402 1.536-.476.147-.865.294-.865.325s.308.178.683.326.683.287.683.31-1.077.417-2.392.877c-3.132 1.096-3.237 1.135-3.237 1.206 0 .033.308.184.684.335s.684.294.684.32-.398.183-.885.353-.885.334-.885.366.364.215.81.407l.81.35-.98.347c-.54.19-1.01.347-1.05.347s-.426-.16-.862-.356l-.792-.356-.996.355-1.07.38c-.04.013.546.308 1.303.655l1.376.63.044 2.478 1.72.786.048-2.476-.548-.252c-.3-.14-.537-.263-.523-.276s.47-.188 1.014-.39l.99-.365.82.368c.452.202.847.4.878.418s-.377.21-.907.404l-.964.353.225.137c.124.075.357.18.518.234s.314.152.34.22.047.656.047 1.308v1.185l.865.414c.476.228.92.452.985.5s.474.246.905.443l.784.36v2.57l-.26-.1c-.144-.06-.497-.22-.784-.358s-.568-.248-.623-.248c-.076 0-.1.3-.1 1.235v1.236l1.75.786c.962.432 1.794.82 1.848.864.068.054.105.46.12 1.326l.022 1.248.764.348c.42.192.79.35.824.353s.06-.543.06-1.212c0-1.4-.12-1.323 1.066-.766l.784.368V22.11l-1.307-.634-1.8-.86-.503-.225v-1.195c0-.774.03-1.195.084-1.195.046 0 .226.072.4.16.302.154.543.223.35.1-.054-.034.342-.233.932-.468l1.025-.41 1.89.837-.91.383-1.06.438c-.11.04.293.26 1.488.807l2.482 1.108 1.436.63c.325.15.657.274.737.274s.58-.195 1.11-.433l.965-.433.75.336c1.364.612 1.115.603 2.268.08.56-.254 1.016-.485 1.016-.514s-.28-.173-.623-.322l-1.227-.547c-.956-.438-2.033-.9-2.097-.9s-3.124-1.33-4.962-2.155l-1.068-.48 1.975-.793.885.38c.487.21.975.383 1.086.387s.607-.16 1.102-.366l.9-.372.886.372c.487.204.953.372 1.036.372.145 0 1.014-.358 2.208-.91.32-.148.792-.352 1.047-.454s.48-.213.503-.248-.36-.22-.845-.412-.885-.37-.885-.395.208-.13.462-.234a40.74 40.74 0 0 0 .905-.384l.442-.196-.865-.34c-.476-.188-.883-.36-.904-.38s.334-.193.79-.38l.83-.34.858.326c.472.18.926.326 1.01.326s.546-.165 1.03-.366l.88-.366.93.346c.512.2.944.375.96.4s-.368.23-.855.43l-1.81.754-.925.39.362.152a36.91 36.91 0 0 0 .985.386c.343.13.623.257.623.284s-.37.205-.824.395c-2.108.884-4.725 2.04-4.725 2.09s.658.333 2.942 1.255l1.132.457 1.12-.518 5.463-2.476c.53-.23.983-.45 1.005-.484.045-.072 1.65-.805 1.762-.805.165 0 1.696-.755 1.638-.808-.035-.032-.39-.175-.787-.32l-.922-.336c-.18-.067-.12-.11.627-.444.454-.203.797-.395.762-.426s-.452-.193-.927-.36-.847-.33-.827-.36.36-.194.756-.36l.72-.302.944.33c.52.18 1 .33 1.09.33s.51-.16.952-.357l.806-.357.89.317c.49.174.937.317.995.317s.445-.157.86-.35l.753-.35-.803-.264c-.442-.145-.912-.313-1.044-.372a24.61 24.61 0 0 0-1.116-.419l-.874-.31 1.39-.597 3.98 1.288.805-.36c.443-.198.832-.36.865-.36s.06 9.26.06 20.576v20.576L31.84 63.998a110.57 110.57 0 0 1-2.176-1.008zm-1.385-7.072l-.022-1.25-1.73-.8v2.534l.824.373c.453.205.852.375.887.377s.052-.558.04-1.245zm3.637-.886v-1.25l-.583-.267-1.227-.568-1.697-.765c-.018 0-.032.57-.03 1.267l.002 1.267 1.707.78 1.767.784c.033.003.06-.558.06-1.246zM22.8 53.418l-.022-1.256-.764-.348c-.42-.192-.81-.35-.865-.353-.076-.003-.1.287-.1 1.197 0 .873.027 1.22.1 1.266.15.096 1.538.737 1.61.744.034.003.052-.56.04-1.25zm-12.7-3.21v-1.25l-.704-.326-.885-.396-.18-.07v2.543l.824.373c.453.205.852.374.885.375s.06-.56.06-1.248zm19.946-1.185v-1.23l-.22-.088a25.88 25.88 0 0 1-.845-.378l-.623-.29v2.45l.824.375.845.382c.01.003.02-.547.02-1.223zm-14.477-1.47v-1.25l-.704-.326L14 45.58l-.18-.07v2.543l.824.373c.453.205.852.374.885.375s.06-.56.06-1.248zm7.22-1.857l-.022-1.257-1.568-.72-1.75-.792-.18-.073v2.538l1.67.772c.918.425 1.715.776 1.77.78.08.006.098-.27.08-1.25zm5.43-1.32c-.073-.065-3.45-1.606-3.518-1.606-.026 0-.037.568-.025 1.262l.022 1.262 3.54 1.626.022-1.245c.012-.685-.006-1.27-.04-1.3zm-14.5-.225v-1.274l-.824-.376c-.453-.207-.852-.376-.887-.375s-.052.568-.04 1.26l.022 1.26.845.385.865.39c.01.002.02-.57.02-1.27zm1.85-1.743V41.16l-.422-.19-1.347-.61v2.5l.824.392c.453.215.852.395.885.398s.06-.555.06-1.24zm-3.62-1.638v-1.277l-1.74-.794-1.8-.82c-.118-.045-.088 2.46.03 2.535.083.054 3.434 1.614 3.5 1.63.01.003.02-.57.02-1.272zm19.946-3.775v-1.27l-.755-.336-.885-.386c-.116-.044-.13.085-.13 1.2v1.26l.824.392c.453.215.852.395.885.398s.06-.566.06-1.265zm-7.24-.72L24.676 35 21.1 33.363l-.022 1.22c-.017.9.004 1.245.08 1.317s3.398 1.63 3.5 1.64c.01.001.02-.568.02-1.265zM19.21 33.78v-1.27l-1.717-.782-1.77-.782c-.03 0-.053.557-.053 1.237v1.237l.422.18c.354.152 1.21.55 2.795 1.303l.302.14c.01.003.02-.566.02-1.264zm-9.026-1.59l-.022-1.252-1.752-.8-1.8-.8c-.02 0-.038.56-.038 1.247v1.247l.56.25c.308.138 1.077.498 1.71.8s1.195.55 1.25.553c.08.003.098-.273.08-1.247zm1.707-1.753v-1.235l-.805-.374c-.443-.205-.823-.374-.845-.374s-.04.544-.04 1.208v1.208l.824.393.845.4c.01.004.02-.55.02-1.228zm16.408-5.43V23.81l-.382-.163-.847-.373-.465-.2.044 2.432.764.348c.42.192.79.35.824.353s.06-.534.06-1.19zm-18.177-.54v-1.252l-.848-.397c-.466-.218-.864-.397-.885-.397s-.037.563-.037 1.25v1.25l.824.392c.453.215.852.395.885.398s.06-.557.06-1.246zm21.796-.356v-1.286l-.26-.113c-.144-.062-.533-.24-.865-.392l-.603-.28.05 2.592.82.375.84.382c.01.004.02-.572.02-1.28zm-20.045-2.696c-.103-.09-1.535-.763-1.627-.763-.027 0-.04.567-.026 1.26l.022 1.26 1.69.76.022-1.213c.017-.906-.004-1.236-.08-1.304zm3.718.335v-1.234l-.812-.374c-.447-.206-.845-.374-.885-.374s-.073.548-.073 1.23v1.23l.824.378c.453.208.852.378.885.38s.06-.553.06-1.232zm7.158-3.11c-.066-.043-.157-.078-.2-.078s-.026.035.04.078.157.078.2.078.026-.035-.04-.078zm-5.228-2.41c-.288-.118-.72-.304-.96-.413l-.437-.2 1.02-.4c.56-.214 1.02-.4 1.02-.41s-.36-.177-.803-.37-.776-.372-.744-.4c.076-.065 1.85-.72 1.952-.72.042 0 .34.12.66.265l.784.35c.196.083.192.088-.19.258-.215.095-.42.173-.456.173-.115 0-1.04.42-1.04.473.001.027.378.213.84.412s.813.386.783.416c-.055.054-.496.236-1.422.585l-.483.182zM21 16.08c-.452-.206-.823-.392-.823-.414s.446-.2.992-.418l.993-.378.856.373c.47.205.856.396.856.424 0 .06-1.854.807-1.972.795-.044-.004-.45-.176-.9-.382zm23.646-1.603c-.54-.207-.956-.403-.924-.435s.43-.22.883-.42l.825-.36 1.005.376c.553.207 1.005.4 1.005.427 0 .057-1.628.798-1.74.79-.04-.002-.513-.173-1.053-.38zm-15.65-.075c-.478-.202-.84-.396-.804-.43s.44-.212.902-.395l.837-.332.952.386c.524.212.952.405.952.427 0 .067-1.673.724-1.828.718-.078-.003-.533-.17-1.01-.374zm3.985.04c-.453-.182-.824-.355-.824-.384s.402-.218.894-.418l.894-.364.916.365c.504.2.915.386.915.41-.001.074-1.64.73-1.812.725-.087-.002-.53-.153-.982-.335zM21.518 12.83l-.787-.33 1.85-.688.787.327.808.346c.027.026-1.74.69-1.813.683-.03-.004-.41-.155-.844-.337zm6.563-.38c-.086-.075-1.73-.726-1.835-.726-.075 0-.752-.276-2.498-1.017-.4-.17-.737-.345-.747-.4s.426-.238.97-.43c2.46-.87 4.27-1.577 4.306-1.68.016-.047-.163-.15-.398-.227s-.566-.204-.737-.28l-.3-.14.47-.174.817-.303c.2-.07.317-.156.282-.188s-.417-.19-.848-.35l-.784-.29-1.468.526c-2.118.76-2.165.778-2.095.845.035.034.386.184.78.335l.715.274-1.713.604-.837-.327c-.46-.18-.867-.327-.902-.327-.118 0-1.556-.59-1.556-.637 0-.055 2.492-.926 5.323-1.86L27 5.034l1.542.57 1.647-.58L32 5.686l1.626-.6 1.664-.638c.02-.02-.012-.056-.074-.078l-2.428-.86-.708-.246-1.634.565-.888-.28-1.705-.562-.817-.282-3.352 1.08-.66-.227c-.362-.125-.645-.25-.63-.276s1.862-.662 4.1-1.412l4.07-1.363 1.542.545 1.427-.456 1.463.467-.747.25c-.41.137-.713.27-.67.293s.428.16.858.302l.782.258 1.613-.53.804.264c.442.145.804.275.804.3s-.3.13-.643.255-.643.25-.643.274.308.145.684.268.684.25.684.286-.308.168-.684.296-.684.252-.684.277.308.145.684.267.684.252.684.288-.1.103-.22.148c-.823.306-1.207.462-1.347.55-.088.055-.65.263-1.247.46l-2.13.74c-1.64.595-1.575.588-2.468.254l-.766-.287-.808.296c-.444.163-.82.332-.836.375-.048.13 1.302.6 1.62.575.155-.017.593-.155.974-.307l.692-.276.434.177a23.61 23.61 0 0 0 .821.315c.213.076.376.147.362.158s-.776.304-1.694.65-1.67.65-1.67.675.366.185.813.355.782.336.744.37-.422.19-.853.35l-.785.29-1.85-.715-.924.337c-.508.185-.897.362-.864.393.05.045 2.537 1.076 3.31 1.37.106.04.175.1.155.1-.108.108-1.834.733-1.9.684zm7.815-9.416c.42-.135.765-.273.765-.307s-.328-.166-.73-.295l-.73-.233-.658.23c-.362.126-.71.256-.77.288-.093.048.296.2 1.338.555.01.003.363-.104.784-.24zm-4.905-.61c.354-.116.67-.235.704-.265s-.248-.154-.623-.277l-.683-.223-.683.223c-.376.122-.655.25-.62.286.052.052 1.08.44 1.222.46.022.003.33-.09.684-.205zm-15.12 9.688l-.747-.344c-.013-.013.412-.177.945-.366s.968-.37.968-.402-.327-.197-.727-.365-.7-.333-.664-.366.408-.178.828-.322.794-.287.83-.32.163-.012.282.046.45.2.737.32.55.24.583.273-.338.2-.824.374-.885.34-.885.367.327.187.727.355.742.33.762.362c.045.073-1.717.727-1.93.717-.088-.004-.486-.152-.884-.33zm17.942-.37c-.032-.033-.442-.208-.9-.39s-.818-.35-.777-.375a60.91 60.91 0 0 1 1.802-.7l1.727-.654.824.302c.453.166.824.324.824.352s-.353.188-.784.357-.82.334-.865.368-.424.197-.845.363-.804.332-.852.37-.114.04-.147.008zm10.34-.39c-.502-.188-.927-.356-.946-.374s.31-.172.73-.342.755-.316.745-.325-.4-.15-.864-.316-.9-.345-.965-.4-.473-.223-.905-.373-.784-.294-.784-.32.262-.148.583-.27.662-.273.758-.332c.154-.096.285-.07 1.127.226l.952.334.792-.314c.606-.24.757-.328.643-.376a35.24 35.24 0 0 0-.873-.319l-.723-.257.402-.175c.22-.096.546-.224.723-.283a1.89 1.89 0 0 0 .442-.206c.066-.054.4-.212.764-.352s.655-.266.67-.28-.367-.156-.847-.316l-.872-.29-.7.282c-.385.155-.77.282-.86.282-.16 0-3.318-1.08-3.543-1.212-.082-.048-.088-.07-.02-.073.056-.001.407-.124.78-.272l.678-.27 1.817.63 1.56-.59 1.753.58c.964.32 1.78.604 1.8.632s-.257.175-.64.326l-.698.275 1.905.635 1.433-.586 1.93.622c1.262.406 1.88.64 1.787.676-.08.03-.767.33-1.528.665l-1.383.61-1.978-.7-1.568.66c-.863.363-1.554.693-1.536.734s.413.2.878.375.858.313.872.328c.027.027-1.41.616-1.863.763a16.04 16.04 0 0 0-.885.354l-.643.275zm-24.162-.698c-.514-.217-.747-.352-.675-.392.06-.034.48-.193.933-.354l.824-.293.797.3c.438.17.786.342.773.38-.026.077-1.634.7-1.777.687-.05-.004-.443-.156-.874-.338zm18.52.012c-.464-.177-.872-.35-.907-.382-.07-.068 1.35-.652 1.583-.652.15 0 2.002.65 1.96.686-.06.054-1.652.68-1.716.675-.04-.003-.455-.15-.92-.328zm12.604-.788l-.788-.3.345-.15.683-.295c.444-.193.488-.188 1.457.164l.83.302L53 9.9c-.353.163-.744.293-.87.288s-.582-.144-1.016-.308zM36.46 8.537l-1.722-.64c-.856-.31-.893-.33-.682-.4a5.95 5.95 0 0 0 .406-.163c.14-.062.294-.112.343-.112a.6.6 0 0 0 .229-.08c.077-.044.604-.26 1.17-.477l1.032-.396.838.29c.46.16.838.315.838.348s-.35.195-.78.36l-.78.302.793.29c.436.16.805.327.82.372s-.306.208-.714.362l-.785.296c-.024.01-.478-.148-1.01-.35zm-26.653-.65l-.674-.293 1.88-.628c1.034-.345 1.932-.628 1.996-.63.15-.002 1.373.498 1.373.562 0 .04-3.78 1.293-3.873 1.284-.015-.001-.33-.135-.702-.296zm30.05-.643c-.43-.158-.784-.312-.784-.342 0-.124 1.39-.583 1.64-.54.432.072 1.674.555 1.604.624-.112.1-1.34.56-1.512.553-.09-.003-.516-.135-.947-.292z" fill="#946a49"/><path d="M30.787 63.482L29 62.654l-.704-.33v-1.212c0-.983.02-1.212.112-1.212.062 0 .378.124.704.276l2.836 1.252c.013 0 .023-1.724.023-3.83v-3.83l-.732-.34-2.783-1.317c-.097-.055-.125-.303-.143-1.286-.014-.78.007-1.218.06-1.218.045 0 .39.142.765.316 1.124.52 1.008.615 1.008-.833 0-.69.032-1.252.07-1.252s.42.163.85.362l.855.362c.043 0 .074-.54.073-1.267l-.002-1.267-.863-.383-.92-.382c-.032.001-.068.556-.08 1.235l-.022 1.234-1.69-.76-.08-2.624-1.802-.828-1.83-.828c-.016 0-.02 1.16-.008 2.577l.02 2.577 1.8.822v2.604l1.77.82v1.25l-.034 1.25c-.018 0-.394-.163-.834-.362l-.893-.362c-.067 0-.087.348-.07 1.267l.022 1.267 1.8.876v2.532l-1.025-.468-1.74-.8-.784-.332c-.038 0-.07.543-.07 1.206s-.027 1.206-.06 1.205-.838-.357-1.8-.792l-1.73-.79-.08-2.555-1.61-.74-2.018-.9c-.225-.087-1.085-.487-1.91-.89l-1.622-.73c-.1 0-.12.192-.12 1.215 0 1.124-.01 1.21-.14 1.16-.077-.03-.475-.205-.883-.39l-.742-.337-.044-2.54-1.69-.776-.022-1.276c-.012-.702-.054-1.307-.093-1.346s-.454-.246-.923-.46l-.852-.39v1.282l-.04 1.282c-.022 0-.402-.163-.845-.362l-.885-.362c-.05 0-.08.463-.08 1.213 0 .667-.03 1.2-.07 1.186l-.883-.39-.813-.362-.003-5.105 1.77.8v-1.246c0-.882.027-1.246.092-1.246.05 0 .447.163.882.362l.833.362c.024 0 .043-.56.043-1.247l.04-1.247c.114 0 1.698.755 1.75.833.032.05.06.64.06 1.308v1.216l.503.225 2.956 1.395c.098.056.125.31.143 1.352l.022 1.283.822.37 2.725 1.188c.04 0 .062-.556.05-1.25l-.022-1.25-1.69-.776-.044-2.593.625.29.888.403.263.114-.042-5.168-1.73-.792-1.83-.795c-.076-.002-.1.29-.1 1.21v1.212l-.18-.057c-.098-.03-.487-.206-.865-.387l-.686-.33-.044-2.578L8.39 37.8l-.02 2.566-.06 2.566c-.02 0-.345-.142-.72-.316-1.124-.52-1.008-.615-1.008.833 0 .718-.032 1.252-.075 1.252s-.426-.163-.855-.362l-.85-.362c-.04 0-.07.543-.07 1.206 0 .913-.024 1.206-.1 1.203-.055-.002-.444-.163-.865-.36l-.764-.356-.042-5.15.182.072.8.36.702.29c.04 0 .084-.557.096-1.244l.022-1.244 1.73.8v-5.148l-1.77-.82v-7.75l-1.77-.82v-1.25l.04-1.25c.02 0 .346.142.722.316 1.124.52 1.008.615 1.008-.833v-1.25l-.784-.36-.905-.432c-.097-.056-.125-.304-.143-1.264l.017-1.296c.03-.075.163-.04.505.124.897.435 1.2.557 1.25.52.033-.02.06-.6.06-1.287 0-1.158.01-1.247.14-1.197l.884.39.744.337v2.67l.824.382.925.423c.078.032.1-.242.1-1.215 0-.953.024-1.254.1-1.25.055.002.842.36 1.75.794l1.71.755c.033-.02.06-.606.06-1.305v-1.27l-3.58-1.626-.044-2.582-.325-.13c-.18-.072-.295-.16-.26-.195s1.363-.497 2.948-1.026l2.97-1.05c.063-.063.004-.122-.21-.212l-.758-.335-.46-.2 1.87-.608 1.87-.693c0-.047-.326-.212-.724-.366s-.724-.3-.724-.325.38-.168.845-.318.817-.297.784-.327-.323-.155-.644-.278-.583-.248-.583-.276.425-.2.945-.358l.945-.307 1.44.556.848-.264 2.75-.852.72.26c.396.143.735.285.755.316.034.056-2.682 1.003-4.402 1.536-.476.147-.865.294-.865.325s.308.178.683.326.683.287.683.31-1.077.417-2.392.877L13.82 9.626c0 .033.308.184.684.335s.684.294.684.32-.398.183-.885.353-.885.334-.885.366.364.215.81.407l.81.35-.98.347-1.05.347c-.038 0-.426-.16-.862-.356l-.792-.356-.996.355-1.07.38c-.04.013.546.308 1.303.655l1.376.63.044 2.478 1.72.786.048-2.476-.548-.252c-.3-.14-.537-.263-.523-.276s.47-.188 1.014-.39l.99-.365.82.368.878.418c.03.028-.377.21-.907.404l-.964.353.225.137c.124.075.357.18.518.234s.314.152.34.22.047.656.047 1.308v1.185l.865.414.985.5c.066.046.474.246.905.443l.784.36v2.57l-.26-.1-.784-.358c-.288-.136-.568-.248-.623-.248-.076 0-.1.3-.1 1.235v1.236l1.75.786 1.848.864c.068.054.105.46.12 1.326l.022 1.248.764.348.824.353c.033.002.06-.54.06-1.202l.053-1.206c.03 0 .29.113.583.252l.872.4.342.148V22.11l-1.307-.634-1.8-.86-.503-.225v-1.195c0-.774.03-1.195.084-1.195.046 0 .226.072.4.16.302.154.543.223.35.1-.054-.034.342-.233.932-.468l1.025-.41 1.89.837-.91.383-1.06.438c-.11.04.293.26 1.488.807l2.482 1.108 1.436.63c.325.15.657.274.737.274s.58-.195 1.11-.433l.965-.433.75.336c1.364.612 1.115.603 2.268.08l1.016-.514c0-.028-.28-.173-.623-.322l-1.227-.547-2.097-.9c-.06 0-3.124-1.33-4.962-2.155l-1.068-.48 1.975-.793.885.38c.487.21.975.383 1.086.387s.607-.16 1.102-.366l.9-.372.886.372c.487.204.953.372 1.036.372.145 0 1.014-.358 2.208-.91l1.047-.454c.255-.102.48-.213.503-.248s-.36-.22-.845-.412l-.885-.395c0-.025.208-.13.462-.234l.905-.384.442-.196-.865-.34-.904-.38c-.022-.022.334-.193.79-.38l.83-.34.858.326 1.01.326c.083 0 .546-.165 1.03-.366l.88-.366.93.346c.512.2.927.382.922.426s-.39.238-.855.43l-1.77.738-.925.39.362.152.985.386c.343.13.623.257.623.284s-.37.205-.824.395L36.1 17.35c0 .052.658.333 2.942 1.255l1.132.457 1.12-.518 5.463-2.476 1.005-.484c.045-.072 1.65-.805 1.762-.805.165 0 1.696-.755 1.638-.808-.035-.032-.39-.175-.787-.32l-.922-.336c-.18-.067-.12-.11.627-.444.454-.203.797-.395.762-.426s-.452-.193-.927-.36-.847-.33-.827-.36.36-.194.756-.36l.72-.302.944.33 1.09.33c.08 0 .51-.16.952-.357l.806-.357.89.317.995.317c.06 0 .445-.157.86-.35l.753-.35-.803-.264-1.044-.372a24.61 24.61 0 0 0-1.116-.419l-.874-.31 1.39-.597 3.98 1.288.805-.36.868-.36c.093 0 .025 41.082-.068 41.172-.042.04-.783.4-1.645.776l-5.6 2.53-2.775 1.263L31.87 63.98l-1.083-.5zm-7.88-10.018v-1.29l-.853-.398c-.47-.22-.885-.398-.925-.398s-.072.58-.072 1.29v1.29l.824.393c.453.216.87.396.925.4.077.005.1-.3.1-1.284zm-.02-6.514l-.02-2.526-1.77-.817c-.973-.45-1.797-.792-1.83-.76s-.052 1.192-.04 2.58l.02 2.524 1.77.816c.973.45 1.797.792 1.83.763s.052-1.19.04-2.578zm9.107-7.385v-3.848l-.824-.382-.925-.423c-.08-.032-.1.508-.1 2.542l-.03 2.582c-.016 0-.416-.18-.888-.402s-.877-.402-.898-.402-.03.568-.017 1.262l.022 1.262 1.73.824c.95.453 1.774.826 1.83.83.08.004.1-.815.1-3.843zm-9.088.998v-1.242l1.73.8.06-1.827c.033-1.005.05-2.152.04-2.548-.02-.678-.032-.727-.22-.825-.244-.126-2.07-.986-2.875-1.355l-.583-.267v5.213l-.76-.352c-1.226-.57-1.1-.665-1.073.807l.022 1.266 1.69.783c.93.43 1.752.786 1.83.79.128.008.14-.1.14-1.234zm5.387-2.68l-.001-1.267-.808-.362-.883-.39c-.045-.016-.076.49-.076 1.253v1.28l.784.368c.43.203.83.372.885.375.077.005.1-.295.1-1.26zM13.82 35.143v-2.56l-.865-.39c-.476-.214-.893-.413-.927-.442s-.052-.618-.04-1.3L12 29.184l1.71.78.06-2.49c.04-1.69.032-2.518-.024-2.575-.096-.096-1.598-.787-1.7-.787-.044 0-.075 1.018-.075 2.502 0 2.267-.012 2.497-.13 2.452-.07-.027-.47-.2-.885-.386l-.755-.336-.004-1.29.001-2.578.004-1.287-.946-.42-2.684-1.15c-.064 0-.073.698-.03 2.513l.084 2.558c.014.025.806.4 1.76.837l1.734.792v2.538l-.985-.447-1.74-.8c-.416-.194-.787-.352-.824-.352s-.07.58-.07 1.3v1.3l1.85.87v2.514l.84.397c.462.218.878.397.923.397.05 0 .1-.465.104-1.244l.022-1.244 1.69.77.044 2.578.903.4.923.414c.01.002.02-1.148.02-2.556zm5.46-1.547l.01-1.09-1.797-.82-1.852-.82c-.03 0-.045.58-.033 1.3l.022 1.3 1.806.82.044 2.577 1.69.76.05-1.46.06-2.55zm9.018-.843v-1.25l-.543-.247-.885-.396-.342-.15v2.535l.784.37c.43.204.83.374.885.378.076.006.1-.292.1-1.242zm0-7.747V23.81l-.382-.163-.847-.373-.465-.2.044 2.432.764.348c.42.192.79.35.824.353s.06-.534.06-1.19zm3.62-.894v-1.286l-.26-.113c-.144-.062-.533-.24-.865-.392l-.603-.28.05 2.592.82.375.84.382c.01.004.02-.572.02-1.28zm-20.045-2.696c-.103-.09-1.535-.763-1.627-.763-.027 0-.04.567-.026 1.26l.022 1.26 1.69.76.022-1.213c.017-.906-.004-1.236-.08-1.304zm3.718.335v-1.234l-.812-.374c-.447-.206-.845-.374-.885-.374s-.073.548-.073 1.23v1.23l.824.378c.453.208.852.378.885.38s.06-.553.06-1.232zm7.158-3.11c-.066-.043-.157-.078-.2-.078s-.026.035.04.078.157.078.2.078.026-.035-.04-.078zM14.705 45.84l-.845-.386-.044-2.518.344.15.887.397.543.247v1.25c0 .688-.01 1.25-.02 1.25a32.76 32.76 0 0 1-.865-.388zm2.815-29.607c-.288-.118-.72-.304-.96-.413l-.437-.2 1.02-.4c.56-.214 1.02-.4 1.02-.41s-.36-.177-.803-.37-.776-.372-.744-.4c.076-.065 1.85-.72 1.952-.72.042 0 .34.12.66.265l.784.35c.196.083.192.088-.19.258-.215.095-.42.173-.456.173-.115 0-1.04.42-1.04.473.001.027.378.213.84.412s.813.386.783.416c-.055.054-.496.236-1.422.585l-.483.182zM21 16.08c-.452-.206-.823-.392-.823-.414s.446-.2.992-.418l.993-.378.856.373c.47.205.856.396.856.424 0 .06-1.854.807-1.972.795-.044-.004-.45-.176-.9-.382zm23.646-1.603c-.54-.207-.956-.403-.924-.435s.43-.22.883-.42l.825-.36 1.005.376c.553.207 1.005.4 1.005.427 0 .057-1.628.798-1.74.79-.04-.002-.513-.173-1.053-.38zm-15.65-.075c-.478-.202-.84-.396-.804-.43s.44-.212.902-.395l.837-.332.952.386c.524.212.952.405.952.427 0 .067-1.673.724-1.828.718-.078-.003-.533-.17-1.01-.374zm3.985.04c-.453-.182-.824-.355-.824-.384s.402-.218.894-.418l.894-.364.916.365c.504.2.915.386.915.41-.001.074-1.64.73-1.812.725-.087-.002-.53-.153-.982-.335zM21.518 12.83l-.787-.33 1.85-.688.787.327.808.346c.027.026-1.74.69-1.813.683-.03-.004-.41-.155-.844-.337zm6.563-.38c-.086-.075-1.73-.726-1.835-.726-.075 0-.752-.276-2.498-1.017-.4-.17-.737-.345-.747-.4s.426-.238.97-.43c2.46-.87 4.27-1.577 4.306-1.68.016-.047-.163-.15-.398-.227s-.566-.204-.737-.28l-.3-.14.47-.174.817-.303c.2-.07.317-.156.282-.188s-.417-.19-.848-.35l-.784-.29-1.468.526c-2.118.76-2.165.778-2.095.845.035.034.386.184.78.335l.715.274-1.713.604-.837-.327c-.46-.18-.867-.327-.902-.327-.118 0-1.556-.59-1.556-.637 0-.055 2.492-.926 5.323-1.86L27 5.034l1.542.57 1.647-.58L32 5.686l1.626-.6 1.664-.638c.02-.02-.012-.056-.074-.078l-2.428-.86-.708-.246-1.634.565-.888-.28-1.705-.562-.817-.282-3.352 1.08-.66-.227c-.362-.125-.645-.25-.63-.276s1.862-.662 4.1-1.412l4.07-1.363 1.542.545 1.427-.456 1.463.467-.747.25c-.41.137-.713.27-.67.293s.428.16.858.302l.782.258 1.613-.53.804.264c.442.145.804.275.804.3s-.3.13-.643.255-.643.25-.643.274.308.145.684.268.684.25.684.286-.308.168-.684.296-.684.252-.684.277.308.145.684.267.684.252.684.288-.1.103-.22.148c-.823.306-1.207.462-1.347.55-.088.055-.65.263-1.247.46l-2.13.74c-1.64.595-1.575.588-2.468.254l-.766-.287-.808.296c-.444.163-.82.332-.836.375-.048.13 1.302.6 1.62.575.155-.017.593-.155.974-.307l.692-.276.434.177a23.61 23.61 0 0 0 .821.315c.213.076.376.147.362.158s-.776.304-1.694.65-1.67.65-1.67.675.366.185.813.355.782.336.744.37-.422.19-.853.35l-.785.29-1.85-.715-.924.337c-.508.185-.897.362-.864.393.05.045 2.537 1.076 3.31 1.37.106.04.175.1.155.1-.108.108-1.834.733-1.9.684zm7.815-9.416c.42-.135.765-.273.765-.307s-.328-.166-.73-.295l-.73-.233-.658.23c-.362.126-.71.256-.77.288-.093.048.296.2 1.338.555.01.003.363-.104.784-.24zm-4.905-.61c.354-.116.67-.235.704-.265s-.248-.154-.623-.277l-.683-.223-.683.223c-.376.122-.655.25-.62.286.052.052 1.08.44 1.222.46.022.003.33-.09.684-.205zm-15.12 9.688l-.747-.344c-.013-.013.412-.177.945-.366s.968-.37.968-.402-.327-.197-.727-.365-.7-.333-.664-.366.408-.178.828-.322.794-.287.83-.32.163-.012.282.046.45.2.737.32.55.24.583.273-.338.2-.824.374-.885.34-.885.367.327.187.727.355.742.33.762.362c.045.073-1.717.727-1.93.717-.088-.004-.486-.152-.884-.33zm17.942-.37c-.032-.033-.442-.208-.9-.39s-.818-.35-.777-.375a60.91 60.91 0 0 1 1.802-.7l1.727-.654.824.302c.453.166.824.324.824.352s-.353.188-.784.357-.82.334-.865.368-.424.197-.845.363-.804.332-.852.37-.114.04-.147.008zm10.34-.39c-.502-.188-.927-.356-.946-.374s.31-.172.73-.342.755-.316.745-.325-.4-.15-.864-.316-.9-.345-.965-.4-.473-.223-.905-.373-.784-.294-.784-.32.262-.148.583-.27.662-.273.758-.332c.154-.096.285-.07 1.127.226l.952.334.792-.314c.606-.24.757-.328.643-.376a35.24 35.24 0 0 0-.873-.319l-.723-.257.402-.175c.22-.096.546-.224.723-.283a1.89 1.89 0 0 0 .442-.206c.066-.054.4-.212.764-.352s.655-.266.67-.28-.367-.156-.847-.316l-.872-.29-.7.282c-.385.155-.77.282-.86.282-.16 0-3.318-1.08-3.543-1.212-.082-.048-.088-.07-.02-.073.056-.001.407-.124.78-.272l.678-.27 1.817.63 1.56-.59 1.753.58c.964.32 1.78.604 1.8.632s-.257.175-.64.326l-.698.275 1.905.635 1.433-.586 1.93.622c1.262.406 1.88.64 1.787.676-.08.03-.767.33-1.528.665l-1.383.61-1.978-.7-1.568.66c-.863.363-1.554.693-1.536.734s.413.2.878.375.858.313.872.328c.027.027-1.41.616-1.863.763a16.04 16.04 0 0 0-.885.354l-.643.275zm-24.162-.698c-.514-.217-.747-.352-.675-.392.06-.034.48-.193.933-.354l.824-.293.797.3c.438.17.786.342.773.38-.026.077-1.634.7-1.777.687-.05-.004-.443-.156-.874-.338zm18.52.012c-.464-.177-.872-.35-.907-.382-.07-.068 1.35-.652 1.583-.652.15 0 2.002.65 1.96.686-.06.054-1.652.68-1.716.675-.04-.003-.455-.15-.92-.328zm12.604-.788l-.788-.3.345-.15.683-.295c.444-.193.488-.188 1.457.164l.83.302L53 9.9c-.353.163-.744.293-.87.288s-.582-.144-1.016-.308zM36.46 8.537l-1.722-.64c-.856-.31-.893-.33-.682-.4a5.95 5.95 0 0 0 .406-.163c.14-.062.294-.112.343-.112a.6.6 0 0 0 .229-.08c.077-.044.604-.26 1.17-.477l1.032-.396.838.29c.46.16.838.315.838.348s-.35.195-.78.36l-.78.302.793.29c.436.16.805.327.82.372s-.306.208-.714.362l-.785.296c-.024.01-.478-.148-1.01-.35zm-26.653-.65l-.674-.293 1.88-.628c1.034-.345 1.932-.628 1.996-.63.15-.002 1.373.498 1.373.562 0 .04-3.78 1.293-3.873 1.284-.015-.001-.33-.135-.702-.296zm30.05-.643c-.43-.158-.784-.312-.784-.342 0-.124 1.39-.583 1.64-.54.432.072 1.674.555 1.604.624-.112.1-1.34.56-1.512.553-.09-.003-.516-.135-.947-.292z" fill="#64a43a"/><path d="M30.787 63.482L29 62.654l-.704-.33v-1.212c0-.983.02-1.212.112-1.212.062 0 .378.124.704.276l2.836 1.252c.013 0 .023-1.724.023-3.83v-3.83l-.732-.34-2.783-1.317c-.097-.055-.125-.303-.143-1.286-.014-.78.007-1.218.06-1.218.045 0 .39.142.765.316 1.124.52 1.008.615 1.008-.833 0-.69.032-1.252.07-1.252s.42.163.85.362l.855.362c.043 0 .074-.54.073-1.267l-.002-1.267-.863-.383-.92-.382c-.032.001-.068.556-.08 1.235l-.022 1.234-1.69-.76-.08-2.624-1.802-.828-1.83-.828c-.016 0-.02 1.16-.008 2.577l.02 2.577 1.8.822v2.604l1.77.82v1.25l-.034 1.25c-.018 0-.394-.163-.834-.362l-.893-.362c-.067 0-.087.348-.07 1.267l.022 1.267 1.8.876v2.532l-1.025-.468-1.74-.8-.784-.332c-.038 0-.07.543-.07 1.206s-.027 1.206-.06 1.205-.838-.357-1.8-.792l-1.73-.79-.08-2.555-1.61-.74-2.018-.9c-.225-.087-1.085-.487-1.91-.89l-1.622-.73c-.1 0-.12.192-.12 1.215 0 1.124-.01 1.21-.14 1.16-.077-.03-.475-.205-.883-.39l-.742-.337-.044-2.54-1.69-.776-.022-1.276c-.012-.702-.054-1.307-.093-1.346s-.454-.246-.923-.46l-.852-.39v1.282l-.04 1.282c-.022 0-.402-.163-.845-.362l-.885-.362c-.05 0-.08.463-.08 1.213 0 .667-.03 1.2-.07 1.186l-.883-.39-.813-.362-.003-5.105 1.77.8v-1.246c0-.882.027-1.246.092-1.246.05 0 .447.163.882.362l.833.362c.024 0 .043-.56.043-1.247l.04-1.247c.114 0 1.698.755 1.75.833.032.05.06.64.06 1.308v1.216l.503.225 2.956 1.395c.098.056.125.31.143 1.352l.022 1.283.822.37 2.725 1.188c.04 0 .062-.556.05-1.25l-.022-1.25-1.69-.776-.044-2.593.625.29.888.403.263.114-.042-5.168-1.73-.792-1.83-.795c-.076-.002-.1.29-.1 1.21v1.212l-.18-.057c-.098-.03-.487-.206-.865-.387l-.686-.33-.044-2.578L8.39 37.8l-.02 2.566-.06 2.566c-.02 0-.345-.142-.72-.316-1.124-.52-1.008-.615-1.008.833 0 .718-.032 1.252-.075 1.252s-.426-.163-.855-.362l-.85-.362c-.04 0-.07.543-.07 1.206 0 .913-.024 1.206-.1 1.203-.055-.002-.444-.163-.865-.36l-.764-.356-.042-5.15.182.072.8.36.702.29c.04 0 .084-.557.096-1.244l.022-1.244 1.73.8v-5.148l-1.77-.82v-7.75l-1.77-.82v-1.25l.04-1.25c.02 0 .346.142.722.316 1.124.52 1.008.615 1.008-.833v-1.25l-.784-.36-.905-.432c-.098-.057-.125-.31-.143-1.328-.014-.815.007-1.258.06-1.258.045 0 .444.163.887.362l.843.362c.02 0 .048-.574.06-1.276l.022-1.276 1.69.777.044 2.638.903.41 1.09.46c.102.03.528.21.945.404l.76.352v1.29l-.06 1.3c-.033 0-.495-.196-1.025-.435l-2.543-1.093c-.065 0-.073.69-.03 2.513l.084 2.558c.014.025.806.4 1.76.837l1.734.792v2.538l-.985-.447-1.74-.8-.824-.352c-.038 0-.07.58-.07 1.3v1.3l1.85.87v2.514l.84.397.923.397c.05 0 .1-.465.104-1.244l.022-1.244 1.69.77.044 2.583.46.203.923.41.462.208v-5.12l-.865-.39-.927-.442c-.034-.03-.052-.618-.04-1.3L12 29.184l1.71.78.06-2.49-.024-2.575c-.096-.096-1.598-.787-1.7-.787-.044 0-.075 1.018-.075 2.502 0 2.267-.012 2.497-.13 2.452l-.885-.386-.755-.336-.004-1.29.042-3.81c.017-.017.398.136.847.34l.85.37c.018 0 .034-1.72.034-3.82l.07-3.82c.04 0 .42.163.85.362l.855.362c.043 0 .075-.515.075-1.202V14.63l1.73.8.044 2.493-.855-.4-.888-.4c-.018 0-.023 1.162-.012 2.583l.02 2.583 1.69.76.022-1.28c.026-1.484-.106-1.386 1.107-.824l.757.35.044 2.7.362.177.885.392 1.426.62.903.406.044 2.572 1.69.76.022-1.238.053-1.238c.017 0 .423.177.903.393l.872.393.044-2.573.182.046c.184.046 1.303.576 1.825.864.603.332 3.306 1.6 3.41 1.6.06 0 .432.148.823.33l.896.4.184.072-.047-5.195.684-.3 1.408-.607 1.61-.722 1.63-.77.744-.384c0-.02-.407-.208-.905-.417l-.985-.44c-.092-.07-2.025-.884-2.097-.884-.026 0-.493.195-1.038.433l-.99.433L31 18.663l-1.014-.498c0-.06 1.763-.81 1.9-.81.047 0 .448-.158.89-.352l1.118-.452c.275-.088.67-.248 1.197-.482l1.068-.44c.1-.03.544-.213.983-.406l.8-.35.907.364.926.382c.01.01-.19.103-.442.207l-1.145.502-.845.384-1.126.482c-.235.09-.26.205-.06.265.077.023 1 .39 2.028.814l1.983.77c.052 0 .65-.257 1.33-.57l4.845-2.198 2.96-1.367 1.35-.597c.553-.258.653-.33.523-.38l-.442-.174-.784-.28c-.276-.092-.503-.19-.503-.22s.154-.12.342-.202l.76-.337c.23-.104.468-.19.53-.19s.51.142.994.315l.882.315 1.806-.8 3.114-1.404 1.61-.714a16.48 16.48 0 0 0 .928-.398l.667-.29c.078 0-.013 41.097-.09 41.172-.042.04-.783.4-1.645.776l-5.6 2.53-2.775 1.263L31.87 63.98l-1.083-.5zm-7.88-10.018v-1.29l-.853-.398c-.47-.22-.885-.398-.925-.398s-.072.58-.072 1.29v1.29l.824.393c.453.216.87.396.925.4.077.005.1-.3.1-1.284zm-.02-6.514l-.02-2.526-1.77-.817c-.973-.45-1.797-.792-1.83-.76s-.052 1.192-.04 2.58l.02 2.524 1.77.816c.973.45 1.797.792 1.83.763s.052-1.19.04-2.578zm9.107-7.385v-3.848l-.824-.382-.925-.423c-.08-.032-.1.508-.1 2.542l-.03 2.582c-.016 0-.416-.18-.888-.402s-.877-.402-.898-.402-.03.568-.017 1.262l.022 1.262 1.73.824c.95.453 1.774.826 1.83.83.08.004.1-.815.1-3.843zm-9.088.998v-1.242l1.73.8.06-1.827c.033-1.005.05-2.152.04-2.548-.02-.678-.032-.727-.22-.825-.244-.126-2.07-.986-2.875-1.355l-.583-.267v5.213l-.76-.352c-1.226-.57-1.1-.665-1.073.807l.022 1.266 1.69.783c.93.43 1.752.786 1.83.79.128.008.14-.1.14-1.234zm5.387-2.68l-.001-1.267-.808-.362-.883-.39c-.045-.016-.076.49-.076 1.253v1.28l.784.368c.43.203.83.372.885.375.077.005.1-.295.1-1.26zm-9.017-4.288l.01-1.09-1.797-.82-1.852-.82c-.03 0-.045.58-.033 1.3l.022 1.3 1.806.82.044 2.577 1.69.76.05-1.46.06-2.55zm9.018-.843v-1.25l-.543-.247-.885-.396-.342-.15v2.535l.784.37c.43.204.83.374.885.378.076.006.1-.292.1-1.242zM14.705 45.84l-.845-.386-.044-2.518.344.15.887.397.543.247v1.25c0 .688-.01 1.25-.02 1.25a32.76 32.76 0 0 1-.865-.388zM29.182 24.2l-.845-.394-.044-2.575.545.25a22.49 22.49 0 0 0 .907.392l.362.142.022 1.295c.012.712-.006 1.293-.04 1.3s-.442-.182-.907-.4zm-10.918-2.497l-.824-.393v-1.217c0-1.126.01-1.213.14-1.163.077.03.475.205.884.39l.744.337v1.227c0 .675-.027 1.223-.06 1.22s-.43-.184-.885-.4zm-4.715-7.284c-.393-.197-.7-.37-.684-.388s.434-.178.927-.36l.897-.33.774.337c.425.185.746.364.712.397-.07.067-1.785.72-1.862.708-.027-.004-.37-.168-.763-.365zm31.277.047l-.925-.364c-.074-.03.198-.186.696-.404l.816-.357.933.342c.513.188.932.36.93.382-.001.04-1.534.728-1.606.72a21.19 21.19 0 0 1-.845-.321zm-6.1-.785c-.52-.2-.916-.387-.88-.417.105-.09 3.41-1.476 3.52-1.476.055 0 .527.16 1.05.352l.95.352-.436.193c-.24.106-.87.366-1.4.578l-1.41.582-.446.198zM8.48 12.097c-.43-.208-.68-.37-.62-.405.18-.11 1.73-.6 1.897-.6.174 0 1.493.566 1.492.64-.001.04-1.923.732-2.012.724-.02-.002-.36-.16-.755-.35zm7.473.017l-.746-.343c-.03-.03 1.787-.69 1.903-.69.052 0 .32.095.594.212l1.063.45-.96.352c-.528.194-.998.35-1.046.345s-.412-.152-.8-.328zm9.732-.673l-.885-.36c-.236-.088-.224-.097.594-.407.46-.174.912-.314 1.005-.312.217.005 1.684.596 1.715.69.026.078-1.475.677-1.668.665-.065-.004-.408-.13-.762-.277zm7.28-.115c-.7-.285-.748-.317-.563-.4l1.432-.57.63.245.832.325c.185.073.14.105-.563.4-.42.17-.818.3-.885.3s-.464-.14-.885-.3zm5.554-.685c-1.035-.384-1.04-.328.055-.762l.663-.263 1.868.685-.452.19-.833.34-.38.15zm6.29-.388c-.984-.36-1.8-.676-1.8-.703 0-.064 1.45-.64 1.613-.64.067 0 .9-.327 1.848-.728l2.356-.98.63-.253.912.3c.502.165.994.316 1.093.335.273.053 1.712.533 1.78.595s-1.276.65-1.483.65c-.074 0-.554-.147-1.067-.327l-.932-.327-1.607.667c-.884.367-1.607.696-1.607.73 0 .07.023.08 1.077.47.81.3.836.212-.207.674-.252.11-.54.2-.643.195s-.99-.3-1.976-.66zm-17.212-.997c-.41-.158-.744-.31-.743-.336s.36-.182.798-.344l.797-.294.77.287c.424.158.77.308.77.334 0 .037-1.178.5-1.568.616-.044.013-.415-.105-.824-.263zM20.616 7.94l-.72-.302c-.128-.054-.043-.107.442-.274l4.83-1.66.68.248c.687.25.797.334.54.41a24.57 24.57 0 0 0-1.508.542c-.234.112-3.58 1.286-3.645 1.278-.03-.003-.308-.112-.618-.24zm-5.3-.754l-.636-.263 1.714-.574.502.205.703.285c.182.073.125.106-.6.353-.44.15-.857.27-.925.265s-.4-.126-.76-.27zm12.5-.535c-1.126-.438-1.1-.377-.282-.68.398-.147.812-.27.92-.272s.565-.134 1.015-.293l.82-.29.73.265c.402.146.723.272.714.282-.057.056-3.208 1.24-3.27 1.23-.024-.004-.316-.113-.648-.242zm-12.107-.7l-.716-.287 1.75-.545.672.26c.37.143.66.273.643.29s-.4.15-.83.3l-.802.27zm26.665-.308c-.818-.285-1.517-.548-1.552-.583s.243-.176.617-.312l.682-.248.8.283c.894.32 1.1.318 1.856-.018.254-.113.553-.206.664-.207s.56.122 1 .272l.8.273-.638.257c-.35.14-.697.256-.77.256s-.46.126-.862.28-.812.278-.913.273-.854-.242-1.672-.527zM20.9 5.36a8.32 8.32 0 0 1-.628-.265c-.015-.015.346-.15.802-.303l.83-.275.684.26c.77.29.8.227-.306.625-.323.116-.63.208-.684.204s-.366-.115-.696-.245zm13.527-.005c-.366-.136-.644-.27-.618-.295s.36-.16.742-.297.707-.288.723-.335-.296-.187-.693-.313-.71-.248-.695-.27.334-.15.71-.28l.685-.237.736.235c.405.13.75.256.764.28s-.276.15-.65.277-.678.258-.678.292.347.177.77.32.74.284.704.318c-.138.124-1.416.565-1.623.56-.118-.003-.514-.116-.88-.253zm-3.255-2.33c-.387-.132-.704-.266-.704-.298s.7-.282 1.553-.554l1.553-.496.66.216c.362.12.66.236.66.26s-.262.14-.583.26l-1.336.496c-.414.154-.83.297-.925.318s-.49-.07-.876-.2zm4.906-.612c-.343-.116-.623-.23-.623-.254s.302-.144.67-.267l.67-.223.698.216c.384.12.698.244.698.277 0 .07-1.19.48-1.368.47-.066-.004-.4-.102-.744-.217zm-6.61-1.054c-.352-.12-.603-.243-.56-.27s.416-.158.825-.29l.745-.24.69.234c.38.128.706.248.724.266.05.05-1.444.533-1.626.526-.088-.003-.448-.105-.8-.227z" fill="#5a9a30"/><path d="M30.787 63.482L29 62.654l-.704-.33v-1.212c0-.983.02-1.212.112-1.212.062 0 .378.124.704.276l2.836 1.252c.013 0 .023-1.724.023-3.83v-3.83l-.732-.34-2.783-1.317c-.097-.055-.125-.303-.143-1.286-.014-.78.007-1.218.06-1.218.045 0 .39.142.765.316 1.124.52 1.008.615 1.008-.833 0-.69.032-1.252.07-1.252s.42.163.85.362l.855.362c.043 0 .074-.54.073-1.267l-.002-1.267-.863-.383-.92-.382c-.032.001-.068.556-.08 1.235l-.022 1.234-1.69-.76-.08-2.624-1.802-.828-1.83-.828c-.016 0-.02 1.16-.008 2.577l.02 2.577 1.8.822v2.604l1.77.82v1.25l-.034 1.25c-.018 0-.394-.163-.834-.362l-.893-.362c-.067 0-.087.348-.07 1.267l.022 1.267 1.8.876v2.532l-1.025-.468-1.74-.8-.784-.332c-.038 0-.07.543-.07 1.206s-.027 1.206-.06 1.205-.838-.357-1.8-.792l-1.73-.79-.08-2.555-1.61-.74-2.018-.9c-.225-.087-1.085-.487-1.91-.89l-1.622-.73c-.1 0-.12.192-.12 1.215 0 1.124-.01 1.21-.14 1.16-.077-.03-.475-.205-.883-.39l-.742-.337-.044-2.54-1.69-.776-.022-1.276c-.012-.702-.054-1.307-.093-1.346s-.454-.246-.923-.46l-.852-.39v1.282l-.04 1.282c-.022 0-.402-.163-.845-.362l-.885-.362c-.05 0-.08.463-.08 1.213 0 .667-.03 1.2-.07 1.186l-.883-.39-.813-.362-.003-5.105 1.77.8v-1.246c0-.882.027-1.246.092-1.246.05 0 .447.163.882.362l.833.362c.024 0 .043-.56.043-1.247l.04-1.247c.114 0 1.698.755 1.75.833.032.05.06.64.06 1.308v1.216l.503.225 2.956 1.395c.098.056.125.31.143 1.352l.022 1.283.822.37 2.725 1.188c.04 0 .062-.556.05-1.25l-.022-1.25-1.69-.776-.044-2.593.625.29.888.403.263.114-.042-5.168-1.73-.792-1.83-.795c-.076-.002-.1.29-.1 1.21v1.212l-.18-.057c-.098-.03-.487-.206-.865-.387l-.686-.33-.044-2.578L8.39 37.8l-.02 2.566-.06 2.566c-.02 0-.345-.142-.72-.316-1.124-.52-1.008-.615-1.008.833 0 .718-.032 1.252-.075 1.252s-.426-.163-.855-.362l-.85-.362c-.04 0-.07.543-.07 1.206 0 .913-.024 1.206-.1 1.203-.055-.002-.444-.163-.865-.36l-.764-.356-.042-5.15.182.072.8.36.702.29c.04 0 .084-.557.096-1.244l.022-1.244 1.73.8v-5.148l-1.77-.82v-7.75l-1.77-.82v-1.25l.04-1.25c.02 0 .346.142.722.316 1.124.52 1.008.615 1.008-.833v-1.25l-.784-.36-.905-.432c-.098-.057-.125-.31-.143-1.328-.014-.815.007-1.258.06-1.258.045 0 .444.163.887.362l.845.362c.022 0 .04-.56.04-1.247l.05-1.247c.027 0 .425.17.885.375l.836.375v2.606l.985.445 1.75.783.865.42c.112.09.15 2.556.04 2.556-.033 0-.495-.196-1.025-.435l-2.543-1.093c-.065 0-.073.69-.03 2.513l.084 2.558c.014.025.806.4 1.76.837l1.734.792v2.538l-.985-.447-1.74-.8-.824-.352c-.038 0-.07.58-.07 1.3v1.3l1.85.87v2.514l.84.397.923.397c.05 0 .1-.465.104-1.244l.022-1.244 1.69.77.044 2.583.46.203.923.41.462.208v-5.12l-.865-.39-.927-.442c-.034-.03-.052-.618-.04-1.3L12 29.184l1.71.78.06-2.49-.024-2.575c-.096-.096-1.598-.787-1.7-.787-.044 0-.075 1.018-.075 2.502 0 2.267-.012 2.497-.13 2.452l-.885-.386-.755-.336-.004-1.29.04-3.807c.015-.015.38.137.812.34l.853.367c.038 0 .07-1.72.07-3.82l.033-3.82c.018 0 .425.177.905.393l.872.393.042 5.17.855.4.884.4c.016 0 .03-.56.03-1.247 0-.746.03-1.247.078-1.247s.46.17.925.378l.847.378v5.164l.824.38.885.378c.033 0 .06-.543.06-1.207 0-.83.028-1.206.09-1.206.05 0 .465.17.925.375l.836.375v2.558l.84.397.923.397c.05 0 .1-.462.104-1.234l.022-1.234 1.69.76.022-1.286c.017-.976.046-1.276.12-1.246l.923.422.824.382v2.56l.583.267 1.227.568 1.735.765c.04 0 .08-.557.093-1.238l.022-1.238.872.393.904.393c.018 0 .04-1.162.053-2.58l.02-2.58.804-.364 5.34-2.474 2.007-.898c.192-.066 1.205-.52 2.252-1.008l3.19-1.448 2.373-1.07 12.932-5.892.184-.042-.027 20.52-.104 20.593c-.042.04-.783.4-1.645.776l-5.6 2.53-2.775 1.263L31.87 63.98l-1.083-.5zm-7.88-10.018v-1.29l-.853-.398-.925-.398s-.072.58-.072 1.29v1.29l.824.393.925.4c.077.005.1-.3.1-1.284zm-.02-6.514l-.02-2.526-1.77-.817-1.83-.76s-.052 1.192-.04 2.58l.02 2.524 1.77.816 1.83.763s.052-1.19.04-2.578zm9.107-7.385v-3.848l-.824-.382-.925-.423c-.08-.032-.1.508-.1 2.542l-.03 2.582c-.016 0-.416-.18-.888-.402s-.877-.402-.898-.402-.03.568-.017 1.262l.022 1.262 1.73.824 1.83.83c.08.004.1-.815.1-3.843zm-9.088.998v-1.242l1.73.8.06-1.827.04-2.548c-.02-.678-.032-.727-.22-.825l-2.875-1.355-.583-.267v5.213l-.76-.352c-1.226-.57-1.1-.665-1.073.807l.022 1.266 1.69.783 1.83.79c.128.008.14-.1.14-1.234zm5.387-2.68l-.001-1.267-.808-.362-.883-.39c-.045-.016-.076.49-.076 1.253v1.28l.784.368.885.375c.077.005.1-.295.1-1.26zm-9.017-4.288l.01-1.09-1.797-.82-1.852-.82c-.03 0-.045.58-.033 1.3l.022 1.3 1.806.82.044 2.577 1.69.76.05-1.46.06-2.55zm9.018-.843v-1.25l-.543-.247-.885-.396-.342-.15v2.535l.784.37.885.378c.076.006.1-.292.1-1.242zM14.705 45.84l-.845-.386-.044-2.518.344.15.887.397.543.247v1.25l-.02 1.25a32.76 32.76 0 0 1-.865-.388zm25.91-32.98c-.812-.323-.893-.372-.724-.442l.547-.233c.853-.372.924-.382 1.388-.207l.628.228a7.14 7.14 0 0 1 .482.188l.28.122-.24.098-.964.404-.442.2c-.022.01-.452-.148-.954-.348z" fill="#5a5952"/><path d="M30.788 63.482L29 62.654l-.704-.33v-1.212c0-.983.02-1.212.112-1.212.062 0 .378.124.704.276l2.836 1.252c.013 0 .023-1.724.023-3.83v-3.83l-.732-.34-2.783-1.317c-.097-.055-.125-.303-.143-1.286-.014-.78.007-1.218.06-1.218.045 0 .39.142.765.316 1.124.52 1.008.615 1.008-.833 0-.69.032-1.252.07-1.252s.42.163.85.362l.855.362c.043 0 .074-.54.073-1.267l-.002-1.267-.863-.383-.92-.382c-.032.001-.068.556-.08 1.235l-.022 1.234-1.69-.76-.08-2.624-1.802-.828-1.83-.828c-.016 0-.02 1.16-.008 2.577l.02 2.577 1.8.822v2.604l1.77.82v1.25l-.034 1.25c-.018 0-.394-.163-.834-.362l-.893-.362c-.067 0-.087.348-.07 1.267l.022 1.267 1.8.876v2.532l-1.025-.468-1.74-.8-.784-.332c-.038 0-.07.543-.07 1.206s-.027 1.206-.06 1.205-.838-.357-1.8-.792l-1.73-.79-.08-2.555-1.61-.74-2.018-.9c-.225-.087-1.085-.487-1.91-.89l-1.622-.73c-.1 0-.12.192-.12 1.215 0 1.124-.01 1.21-.14 1.16-.077-.03-.475-.205-.883-.39l-.742-.337-.044-2.54-1.69-.776-.022-1.276c-.012-.702-.054-1.307-.093-1.346s-.454-.246-.923-.46l-.852-.39v1.282l-.04 1.282c-.022 0-.402-.163-.845-.362l-.885-.362c-.05 0-.08.463-.08 1.213 0 .667-.03 1.2-.07 1.186l-.883-.39-.813-.362-.003-5.105 1.77.8v-1.246c0-.882.027-1.246.092-1.246.05 0 .447.163.882.362l.833.362c.024 0 .043-.56.043-1.247l.04-1.247c.114 0 1.698.755 1.75.833.032.05.06.64.06 1.308v1.216l.503.225 2.956 1.395c.098.056.125.31.143 1.352l.022 1.283.822.37 2.725 1.188c.04 0 .062-.556.05-1.25l-.022-1.25-1.69-.776-.044-2.588.424.19 3.586 1.638 3.198 1.353c.02-.052.027-1.215.015-2.584l-.02-2.5-1.77-.817-1.828-.765c-.032.03-.068.6-.08 1.267l-.022 1.214-1.69-.777-.08-2.598-1.73-.792-1.83-.795c-.076-.002-.1.29-.1 1.21v1.212l-.18-.057c-.098-.03-.487-.206-.865-.387l-.686-.33-.044-2.578L8.39 37.8l-.02 2.566-.06 2.566c-.02 0-.345-.142-.72-.316-1.124-.52-1.008-.615-1.008.833 0 .718-.032 1.252-.075 1.252s-.426-.163-.855-.362l-.85-.362c-.04 0-.07.543-.07 1.206 0 .913-.024 1.206-.1 1.203-.055-.002-.444-.163-.865-.36l-.764-.356-.042-5.15.182.072.8.36.702.29c.04 0 .084-.557.096-1.244l.022-1.244 1.73.8v-5.148l-1.77-.82v-7.75l-1.77-.82v-1.25l.04-1.25c.02 0 .346.142.722.316 1.124.52 1.008.615 1.008-.833v-1.25l-.784-.36-.905-.432c-.098-.057-.125-.31-.143-1.328-.014-.815.007-1.258.06-1.258.045 0 .444.163.887.362l.845.362c.022 0 .04-.56.04-1.247l.05-1.247c.027 0 .425.17.885.375l.836.375V17.6l-.04 1.274c-.02 0-.346-.142-.722-.316-1.125-.52-1.008-.62-1.008.858v1.277l.88.41c.484.225.9.39.925.364s.045-.597.045-1.272v-1.226l1.025.462 1.71.766.784.385c.112.1.15 2.555.04 2.555-.033 0-.495-.196-1.025-.435l-2.543-1.093c-.065 0-.073.69-.03 2.513l.084 2.558c.014.025.806.4 1.76.837l1.734.792v2.538l-.985-.447-1.74-.8-.824-.352c-.038 0-.07.58-.07 1.3v1.3l1.85.87v2.514l.84.397.923.397c.05 0 .1-.465.104-1.244l.022-1.244 1.69.77.044 2.583.46.203.923.41.462.208v-5.12l-.865-.39-.927-.442c-.034-.03-.052-.618-.04-1.3L12 29.184l1.71.78.06-2.49-.024-2.575c-.096-.096-1.598-.787-1.7-.787-.044 0-.075 1.018-.075 2.502 0 2.267-.012 2.497-.13 2.452l-.885-.386-.755-.336-.004-1.29.04-3.807c.015-.015.38.137.812.34l.853.367c.038 0 .07-1.72.07-3.82l.033-3.82c.018 0 .425.177.905.393l.872.393.042 5.17.855.4.884.4c.016 0 .03-.56.03-1.247 0-.746.03-1.247.078-1.247s.46.17.925.378l.847.378v5.164l.824.38.885.378c.033 0 .06-.543.06-1.207 0-.83.028-1.206.09-1.206.05 0 .465.17.925.375l.836.375v2.558l.84.397.923.397c.05 0 .1-.462.104-1.234l.022-1.234 1.69.76.022-1.286c.017-.976.046-1.276.12-1.246l.923.422.824.382v2.56l.583.267 1.227.568 1.737.765c.04 0 .073-.553.073-1.244v-1.244l.342.147.924.424.582.277.042-5.213.804-.364 5.34-2.474 2.007-.898c.192-.066 1.205-.52 2.252-1.008l3.19-1.448 2.373-1.07 12.92-5.9.173-.04-.023 12.856-.042 28.24L47.48 56.88l-2.735 1.248-.022-1.204c-.016-.883-.048-1.204-.12-1.205-.054 0-.47.168-.923.375l-.824.376v2.508L40.3 60.14l-8.43 3.842-1.084-.5zm-7.88-10.018v-1.29l-.853-.398-.925-.398s-.072.58-.072 1.29v1.29l.824.393.925.4c.077.005.1-.3.1-1.284zm9.088-13.898v-3.848l-.824-.382-.925-.423c-.08-.032-.1.508-.1 2.542l-.03 2.582c-.016 0-.416-.18-.888-.402s-.877-.402-.898-.402-.03.568-.017 1.262l.022 1.262 1.73.824 1.83.83c.08.004.1-.815.1-3.843zm-9.088.998v-1.242l1.73.8.06-1.827.04-2.548c-.02-.678-.032-.727-.22-.825l-2.875-1.355-.583-.267v5.213l-.76-.352c-1.226-.57-1.1-.665-1.073.807l.022 1.266 1.69.783 1.83.79c.128.008.14-.1.14-1.234zm35.81-1.64l.543-.247v-1.26c0-1.124-.014-1.253-.13-1.21l-.885.386-.755.336v2.537l.342-.15.885-.396zm-30.424-1.037l-.001-1.267-.808-.362-.883-.39c-.045-.016-.076.49-.076 1.253v1.28l.784.368.885.375c.077.005.1-.295.1-1.26zm-9.017-4.288l.01-1.09-1.797-.82-1.852-.82c-.03 0-.045.58-.033 1.3l.022 1.3 1.806.82.044 2.577 1.69.76.05-1.46.06-2.55zm20.902 3.492l.824-.376v-2.545l-1.77.8v1.248l.06 1.25s.43-.168.885-.375zm-11.883-4.334v-1.25l-.543-.247-.885-.396-.342-.15v2.535l.784.37.885.378c.076.006.1-.292.1-1.242zm-3.62-1.647V29.82l-.856-.4-.925-.4s-.07.573-.07 1.274v1.274l.865.408.925.415s.06-.573.06-1.282zM14.705 45.84l-.845-.386-.044-2.518.344.15.887.397.543.247v1.25l-.02 1.25a32.76 32.76 0 0 1-.865-.388zm25.91-32.98c-.812-.323-.893-.372-.724-.442l.547-.233c.853-.372.924-.382 1.388-.207l.628.228a7.14 7.14 0 0 1 .482.188l.28.122-.24.098-.964.404-.442.2c-.022.01-.452-.148-.954-.348z" fill="#765338"/><path d="M31.012 63.583l-.865-.408v-1.24c0-.682.03-1.228.07-1.214l.883.39.813.362.001 1.267-.02 1.26c-.01-.004-.41-.2-.885-.415zM32 53.65V43.374l1.645-.734.02-2.55-.014-2.55c-.02 0-.387.163-.815.362l-.8.362c-.017 0-.02-3.478-.01-7.73l.02-7.73.804-.364 5.34-2.474 2.007-.898c.192-.066 1.205-.52 2.252-1.008l3.19-1.448 2.373-1.07 12.93-5.89.18-.04v2.57l-.053 6.436-.053 3.866-1.623.73-.022 1.25c-.012.688.01 1.25.05 1.25s.41-.16.826-.353l.756-.353.02 7.728-.04 7.78c-.033.03-.83.393-1.768.81l-1.707.756-.002 1.267.027 1.267s.35-.15.744-.332l1.74-.8 1.025-.468v7.693l-1.83.824-7.58 3.438-6.877 3.13-.022-1.193c-.016-.874-.048-1.193-.12-1.194-.054 0-.47.168-.923.375l-.824.376v2.514l-.704.313-4.665 2.11c-.078.032-.1-.234-.1-1.18 0-.672-.03-1.2-.07-1.195s-.436.2-.883.39l-.813.362-.001 1.217c-.001.877-.03 1.238-.102 1.294-.055.042-.698.342-1.428.665l-1.71.778-.382.2L32 53.65zm6.352 4.85l.764-.348.022-1.256-.02-1.256c-.076 0-1.528.663-1.63.744-.072.057-.1.415-.1 1.276 0 .906.024 1.196.1 1.192.055-.002.444-.16.865-.353zm5.73-7.755l.543-.247v-1.257c0-.706-.032-1.245-.072-1.23s-.438.19-.885.387l-.813.36v2.532l.342-.15.885-.396zm7.046-.655l.813-.362.003-2.524-1.73.8-.022 1.257c-.013.717.01 1.245.05 1.23s.438-.2.885-.39zm-9.03-1l.76-.352v-1.25l-.03-1.25s-.424.18-.905.4l-.875.4-.022 1.256c-.026 1.46-.153 1.365 1.073.797zm-2.8-1.297l1.72-.78V44.47l-1.146.522-1.71.775-.664.328c-.136.1-.145 2.468-.01 2.468.05 0 .864-.35 1.8-.78zm17.3-.186l.813-.362.003-2.528-.784.367-.885.408c-.118.048-.148 2.55-.03 2.504l.883-.39zm-12.74-1.925l.848-.397v-1.212c0-.666-.032-1.212-.072-1.212s-.456.18-.925.398l-.853.398v1.2c0 .718.03 1.2.077 1.2s.46-.18.925-.397zm6.377-2.873l1.71-.777v-2.538l-1.025.467-1.8.834-.784.367v1.212c0 .916.025 1.212.1 1.212.055 0 .87-.35 1.8-.777zM38.1 40.6c1.235-.544 1.126-.373 1.126-1.773 0-.663-.027-1.205-.06-1.206s-.847.352-1.808.784l-1.747.786-.004 2.524.865-.39 1.63-.726zm20.6-1.68l.543-.247v-1.26c0-1.124-.014-1.253-.13-1.21l-.885.386-.755.336v2.537l.342-.15.885-.396zm-3.016-1.19l1.71-.777v-2.538l-.704.322-2.875 1.322-.022 1.224c-.017.95.001 1.224.08 1.225.056 0 .872-.35 1.812-.777zm-15.523-.643l.824-.376v-2.545l-1.77.8v1.248l.06 1.25s.43-.168.885-.375zm5.578-2.565l1.76-.79.764-.345.022-1.267c.012-.697-.01-1.255-.047-1.24s-.853.386-1.812.825l-1.743.797v1.234l.028 1.234s.477-.2 1.025-.446zM38.45 32.73l.704-.326v-2.497l-.18.07-.885.396-.704.326v2.497l.18-.07.885-.396zm13.578-1.044l1.724-.792.022-1.26-.001-1.26a101.34 101.34 0 0 0-1.792.801l-1.768.8-.022 1.25c-.012.687.008 1.25.045 1.25s.843-.356 1.792-.792zm-28.296 26.06l-.824-.375V52.2l1.73.8.02 2.576-.04 2.57s-.432-.175-.886-.382zm-7.165-3.307l-.907-.464s-.066-.605-.053-1.286l.022-1.21 1.8.812v1.274l-.02 1.27s-.394-.18-.85-.393zm3.465-.967l-.824-.393v-1.252c0-.78.03-1.252.08-1.252.044 0 .46.172.925.382l.844.382v1.267c0 .962-.024 1.266-.1 1.263-.055-.002-.472-.18-.925-.397zm11-.166l-.845-.393-.022-1.25c-.013-.734.01-1.25.053-1.25s.44.168.887.374l.812.374v1.275l-.02 1.268s-.4-.183-.865-.4zm-18.237-.56l-.824-.392v-2.556l-1.8-.873-.022-1.274c-.012-.704.01-1.262.048-1.247a66.92 66.92 0 0 1 .927.423l.857.395v2.545l.663.303.905.424.242.12.022 1.267c.017.987 0 1.266-.08 1.262-.056-.003-.474-.18-.927-.397zm12.708-1.916l-.824-.375v-1.267l.06-1.263s.44.177.905.39l.845.385.022 1.26c.017.98 0 1.258-.08 1.253-.056-.003-.474-.175-.927-.382zm-18.097-.595l-.905-.41V48.59c0-.933.025-1.234.1-1.234.055 0 .472.17.925.378l.824.38v1.27l-.02 1.266a61.81 61.81 0 0 1-.925-.415zm10.918-5.292l-.845-.394-.044-2.576.344.15.887.397.543.247v1.3l-.02 1.285a57.33 57.33 0 0 1-.865-.399zm10.898-.143c-.442-.206-.83-.41-.863-.456-.1-.14-.074-2.455.028-2.455.05 0 .465.17.925.38l.835.38v1.27l-.06 1.264s-.422-.174-.865-.38zm-23.706-.56l-.784-.368v-1.273l.032-1.273s.416.18.885.398l.853.398v1.25c0 .95-.024 1.25-.1 1.243-.055-.004-.453-.173-.885-.375zm9.028-3.616l-1.77-.78L12 39.5l-.022-1.26c-.012-.7.01-1.26.05-1.26.065 0 .54.206 2.627 1.14l.824.364c.078.03.1-.244.1-1.215 0-.7.03-1.255.07-1.255s.454.18.925.4l.856.4v2.573l-.18-.07a28.85 28.85 0 0 1-.893-.4l-.742-.33s-.04.556-.052 1.236l-.022 1.236zm5.57-2.6l-.824-.392v-1.25l.06-1.25s.43.17.885.378l.824.38v1.27l-.06 1.265s-.43-.183-.885-.398zm-12.708-.625l-.824-.378v-2.604l1.77.82v1.274l-.06 1.27s-.43-.174-.885-.382zm16.33-2.885l-.82-.372-.024-1.276c-.015-.828.004-1.264.057-1.243a77.73 77.73 0 0 1 .905.415l.824.382v1.234l-.06 1.232s-.43-.17-.88-.374zm5.467-.027l-.822-.39-.044-2.617-1.805-.81-.005-2.575-.865-.383-.925-.38s-.06.56-.06 1.245v1.244l-.784-.368c-1.187-.558-1.066-.65-1.066.807l-.06 1.256s-.812-.344-1.73-.764l-1.71-.764c-.022 0-.04.543-.04 1.206 0 .794-.03 1.206-.085 1.206-.047 0-.725-.294-1.508-.653l-2.227-.995-1.227-.524-.422-.182v-2.62l1.743.798 1.812.798c.038 0 .058-.565.046-1.256l-.022-1.256-1.65-.756-2.296-1.072-1.45-.646c-.018 0-.034.56-.034 1.247 0 .712-.032 1.247-.075 1.247s-.43-.16-.865-.358l-.8-.358-.022-1.29.02-1.29s.392.163.818.362.805.362.843.362.07-1.7.07-3.775.027-3.79.06-3.8.44.138.905.348l.845.383.042 5.17.855.4.884.4c.016 0 .03-.56.03-1.247 0-.746.03-1.247.078-1.247s.46.17.925.378l.847.378v5.164l.824.38.885.378s.06-.543.06-1.207c0-.798.03-1.206.085-1.206.1 0 .964.387 1.443.64l.282.148.044 2.523.84.396.923.396c.055 0 .084-.42.084-1.206l.052-1.206s.407.163.84.362.83.362.877.362c.06 0 .08-.4.063-1.288-.016-.836.004-1.276.056-1.255a77.73 77.73 0 0 1 .905.415l.824.382v2.56l.583.267 1.227.568 1.735.765c.04 0 .08-.557.093-1.238l.022-1.238 1.69.76.022 1.3-.01 1.3s-.383-.163-.812-.362-.813-.362-.855-.362-.075 1.026-.075 2.534l-.06 2.527s-.43-.182-.883-.397zM5.596 28.84l-.865-.41v-2.57c0-2.33.012-2.566.13-2.52l.885.386.755.336v2.598l-.02 2.593c-.01-.003-.41-.19-.885-.414zm4.426-5.738c-.025-.025-.8-.385-1.723-.8l-1.678-.755-.022-1.25.02-1.25s.395.16.826.353l1.307.566a18.28 18.28 0 0 1 .965.432l.442.218.022 1.267c.02 1.134-.01 1.37-.16 1.222zm-6.235-2.85l-.824-.392V17.36l.342.15.885.396.543.247v1.25l-.06 1.245s-.43-.18-.885-.397zm1.77-1.756l-.824-.375v-1.267l.05-1.267s.425.17.885.375l.836.375V17.6l-.06 1.267s-.43-.175-.885-.382zm35.058-5.636c-.812-.323-.893-.372-.724-.442l.547-.233c.853-.372.924-.382 1.388-.207l.628.228a7.14 7.14 0 0 1 .482.188l.28.122-.24.098-.964.404-.442.2c-.022.01-.452-.148-.954-.348z" fill="#496e2e"/><path d="M31.012 63.583l-.865-.408v-1.24c0-.682.03-1.228.07-1.214l.883.39.813.362.001 1.267-.02 1.26c-.01-.004-.41-.2-.885-.415zM32 53.65V43.374l1.645-.734.02-2.55-.014-2.55c-.02 0-.387.163-.815.362l-.8.362c-.017 0-.03-1.746-.028-3.88v-3.88l1.766-.787v-2.635l.854-.4c.47-.22.886-.38.925-.356s.07.603.07 1.286l.06 1.237c.033-.003.44-.193.905-.422l.845-.417.08-2.548.735-.334L40 24.353l1.013-.442.001-1.312c.001-1.29-.002-1.312-.165-1.26-.092.03-.788.342-1.548.696l-1.645.754-.263.1.044-2.498 1.758-.8 1.83-.8c.04 0 .072.53.072 1.175 0 1.047.014 1.17.13 1.125l.883-.385.753-.335.044-2.487 1.85-.846.022 1.2.05 1.2a17.57 17.57 0 0 0 .808-.362l.89-.362c.06 0 .46-.163.89-.362l.85-.362c.04 0 .07.57.07 1.268v1.268l-1.77.786v2.548l.422-.188 1.757-.803 1.428-.616c.066 0 .093.347.093 1.206l.034 1.206c.02 0 .4-.16.824-.358l.8-.358.044-2.54 1.806-.82.042-5.17-.624.29-2.293.982-.704.325v-2.448l.664-.297 7.05-3.253 1.267-.56.19-.047v1.215l.042 1.215c.023 0 .39-.163.817-.362l.795-.342c.038.04.075 5.197.055 7.748l-.02 2.58-1.65.742-.022 1.25c-.012.688.01 1.25.05 1.25s.41-.16.826-.353l.756-.353.02 7.728-.04 7.78c-.033.03-.83.393-1.768.81l-1.707.756-.002 1.267.027 1.267c.016 0 .35-.15.744-.332l1.74-.8 1.025-.468v7.693l-1.83.824-7.58 3.438-6.877 3.13-.022-1.193c-.016-.874-.048-1.193-.12-1.194-.054 0-.47.168-.923.375l-.824.376v2.514l-.704.313-4.665 2.11c-.078.032-.1-.234-.1-1.18 0-.672-.03-1.2-.07-1.195l-.883.39-.813.362-.001 1.217c-.001.877-.03 1.238-.102 1.294-.055.042-.698.342-1.428.665l-1.71.778-.382.2L32 53.65zm6.352 4.85l.764-.348.022-1.256-.02-1.256c-.076 0-1.528.663-1.63.744-.072.057-.1.415-.1 1.276 0 .906.024 1.196.1 1.192.055-.002.444-.16.865-.353zm5.73-7.755l.543-.247v-1.257c0-.706-.032-1.245-.072-1.23s-.438.19-.885.387l-.813.36v2.532l.342-.15.885-.396zm7.046-.655l.813-.362.003-2.524-1.73.8-.022 1.257c-.013.717.01 1.245.05 1.23l.885-.39zm-9.03-1l.76-.352v-1.25l-.03-1.25c-.017 0-.424.18-.905.4l-.875.4-.022 1.256c-.026 1.46-.153 1.365 1.073.797zm-2.8-1.297l1.72-.78V44.47l-1.146.522-1.71.775-.664.328c-.136.1-.145 2.468-.01 2.468.05 0 .864-.35 1.8-.78zm17.3-.186l.813-.362.003-2.528-.784.367-.885.408c-.118.048-.148 2.55-.03 2.504l.883-.39zm-12.74-1.925l.848-.397v-1.212c0-.666-.032-1.212-.072-1.212s-.456.18-.925.398l-.853.398v1.2c0 .718.03 1.2.077 1.2s.46-.18.925-.397zm6.377-2.873l1.71-.777v-2.538l-1.025.467-1.8.834-.784.367v1.212c0 .916.025 1.212.1 1.212.055 0 .87-.35 1.8-.777zM38.1 40.6c1.235-.544 1.126-.373 1.126-1.773 0-.663-.027-1.205-.06-1.206s-.847.352-1.808.784l-1.747.786-.004 2.524.865-.39 1.63-.726zm20.6-1.68l.543-.247v-1.26c0-1.124-.014-1.253-.13-1.21l-.885.386-.755.336v2.537l.342-.15.885-.396zm-3.016-1.19l1.71-.777v-2.538l-.704.322-2.875 1.322-.022 1.224c-.017.95.001 1.224.08 1.225.056 0 .872-.35 1.812-.777zm-15.523-.643l.824-.376v-2.545l-1.77.8v1.248l.06 1.25c.033 0 .43-.168.885-.375zm5.578-2.565l1.76-.79.764-.345.022-1.267c.012-.697-.01-1.255-.047-1.24l-3.555 1.622v1.234l.028 1.234c.016 0 .477-.2 1.025-.446zM38.45 32.73l.704-.326v-2.497l-.18.07-.885.396-.704.326v2.497l.18-.07.885-.396zm13.578-1.044l1.724-.792.022-1.26-.001-1.26a101.34 101.34 0 0 0-1.792.801l-1.768.8-.022 1.25c-.012.687.008 1.25.045 1.25s.843-.356 1.792-.792zM40.3 29.27l.704-.326v-1.25l-.037-1.25c-.02 0-.418.18-.885.397l-.848.397v2.5l.18-.07.885-.396zm3.54-4.198l.784-.354V22.19l-1.65.768-.022 1.267c-.012.697.006 1.252.04 1.234l.847-.387zm12.795-8.435l.778-.356V15.09l-.034-1.192c-.02 0-.4.16-.824.358l-.8.358-.022 1.218c-.012.67.01 1.205.047 1.2l.847-.384zM23.733 57.745l-.824-.375V52.2l1.73.8.02 2.576-.04 2.57c-.034-.003-.432-.175-.886-.382zm-7.165-3.307l-.907-.464c-.043-.043-.066-.605-.053-1.286l.022-1.21 1.8.812v1.274l-.02 1.27c-.01-.003-.394-.18-.85-.393zm3.465-.967l-.824-.393v-1.252c0-.78.03-1.252.08-1.252.044 0 .46.172.925.382l.844.382v1.267c0 .962-.024 1.266-.1 1.263-.055-.002-.472-.18-.925-.397zm11-.166l-.845-.393-.022-1.25c-.013-.734.01-1.25.053-1.25s.44.168.887.374l.812.374v1.275l-.02 1.268c-.01-.004-.4-.183-.865-.4zm-18.237-.56l-.824-.392v-2.556l-1.8-.873-.022-1.274c-.012-.704.01-1.262.048-1.247a66.92 66.92 0 0 1 .927.423l.857.395v2.545l.663.303.905.424.242.12.022 1.267c.017.987 0 1.266-.08 1.262-.056-.003-.474-.18-.927-.397zm12.708-1.916l-.824-.375v-1.267l.06-1.263c.033.002.44.177.905.39l.845.385.022 1.26c.017.98 0 1.258-.08 1.253-.056-.003-.474-.175-.927-.382zm-18.097-.595l-.905-.41V48.59c0-.933.025-1.234.1-1.234.055 0 .472.17.925.378l.824.38v1.27l-.02 1.266a61.81 61.81 0 0 1-.925-.415zm10.918-5.292l-.845-.394-.044-2.576.344.15.887.397.543.247v1.3l-.02 1.285a57.33 57.33 0 0 1-.865-.399zm10.898-.143c-.442-.206-.83-.41-.863-.456-.1-.14-.074-2.455.028-2.455.05 0 .465.17.925.38l.835.38v1.27l-.06 1.264c-.033-.003-.422-.174-.865-.38zm-23.706-.56l-.784-.368v-1.273l.032-1.273c.018 0 .416.18.885.398l.853.398v1.25c0 .95-.024 1.25-.1 1.243-.055-.004-.453-.173-.885-.375zm9.028-3.616l-1.77-.78L12 39.5l-.022-1.26c-.012-.7.01-1.26.05-1.26.065 0 .54.206 2.627 1.14l.824.364c.078.03.1-.244.1-1.215 0-.7.03-1.255.07-1.255s.454.18.925.4l.856.4v2.573l-.18-.07-.893-.4-.742-.33c-.017 0-.04.556-.052 1.236l-.022 1.236zm5.57-2.6l-.824-.392v-1.25l.06-1.25c.033 0 .43.17.885.378l.824.38v1.27l-.06 1.265c-.033-.003-.43-.183-.885-.398zm-12.708-.625l-.824-.378v-2.604l1.77.82v1.274l-.06 1.27c-.033-.002-.43-.174-.885-.382zm16.33-2.885l-.82-.372-.024-1.276c-.015-.828.004-1.264.057-1.243l.905.415.824.382v1.234l-.06 1.232c-.033-.001-.43-.17-.88-.374zm5.467-.027l-.822-.39-.044-2.617-1.805-.81-.002-1.267.023-1.267c.014 0 .813.362 1.776.804l1.784.804c.018 0 .034-.56.034-1.247l.06-1.247c.033 0 .43.17.885.378l.824.38v1.27l-.03 1.27c-.017 0-.38-.163-.8-.362l-.855-.362c-.044 0-.075 1.026-.075 2.534l-.06 2.527c-.033-.003-.43-.182-.883-.397zM17.6 31.702l-1.9-.848-1.146-.49-.744-.33v-2.6l1.743.798 1.812.798c.038 0 .058-.565.046-1.256l-.022-1.256-1.65-.757-2.38-1.112-1.066-.49-.335-.134v-7.64l.184.046c.1.025.5.192.885.37l.7.324v5.148l.782.366.963.41.18.045.044-2.494 1.69.773.042 5.17.758.352c1.218.566 1.1.66 1.1-.795l.032-1.252c.018 0 .416.18.885.398l.853.398v2.555l1.77.82v1.25l-.06 1.25c-.033 0-.812-.344-1.73-.764l-1.71-.764c-.022 0-.04.543-.04 1.206 0 .913-.024 1.206-.1 1.204-.055-.002-.77-.312-1.588-.7zm6.173-2.306l-.865-.402V27.76l.052-1.235c.03 0 .407.163.84.362l.873.362c.054 0 .084-.438.084-1.247l.037-1.247c.02 0 .418.18.885.397l.848.397v1.257c0 1.455.116 1.358-1.008.838l-.76-.316c-.045 0-.086.518-.1 1.235l-.022 1.235zM5.596 28.84l-.865-.41v-2.57c0-2.33.012-2.566.13-2.52l.885.386.755.336v2.598l-.02 2.593c-.01-.003-.41-.19-.885-.414zm5.41-2.68l-.764-.353-.044-2.58.464.2 1.31.592v1.248c0 .947-.024 1.246-.1 1.242-.055-.003-.444-.164-.865-.358zm-.983-3.06c-.025-.025-.8-.385-1.723-.8l-1.678-.755-.022-1.25.016-1.25c.02 0 .465.193.987.43l1.734.78.784.35v1.272l-.027 1.272c-.015 0-.047-.02-.072-.045zm-6.235-2.85l-.824-.392V17.36l.342.15.885.396.543.247v1.25l-.06 1.245c-.033-.003-.43-.18-.885-.397zm1.77-1.756l-.824-.375v-1.267l.032-1.267c.018 0 .416.18.885.398l.853.398v1.25l-.06 1.244c-.033-.003-.43-.175-.885-.382z" fill="#5b422d"/><path d="M33.766 60.546l-.032-2.493c-.018 0-.416.18-.885.398l-.853.398v-5.187l.704-.3c1.175-.518 1.066-.333 1.066-1.802v-1.27l1.77-.782v-5.113l-.342.15-.885.396-.543.247V41.32l-.04-3.857c-.02 0-.346.142-.722.316-1.125.52-1.01.618-1.007-.853L32 35.653l.73-.32c1.127-.493 1.036-.342 1.036-1.736 0-.66-.03-1.202-.07-1.202s-.417.163-.843.362l-.816.362c-.023 0-.042-.597-.042-1.327 0-.77.032-1.327.075-1.327s.44-.17.885-.375l.81-.375v-2.63l.856-.4.885-.4c.016 0 .03.58.03 1.287 0 .728.032 1.287.074 1.287a20.89 20.89 0 0 0 1.776-.782c.022-.02.058-.615.08-1.323l.04-1.288.735-.334L40 24.353l1.013-.442.001-1.312c.001-1.29-.002-1.312-.165-1.26-.092.03-.788.342-1.548.696l-1.645.754-.263.1.044-2.498 1.758-.8 1.83-.8c.04 0 .072.53.072 1.175 0 1.047.014 1.17.13 1.125l.883-.385.753-.335.044-2.487 1.85-.846.022 1.2.05 1.2a17.57 17.57 0 0 0 .808-.362l.89-.362c.06 0 .46-.163.89-.362l.85-.362c.04 0 .07.57.07 1.268v1.268l-1.77.786v2.548l.422-.188 1.757-.803 1.428-.616c.066 0 .093.347.093 1.206l.034 1.206c.02 0 .4-.16.824-.358l.8-.358.022-1.29c.012-.72.055-1.29.096-1.29s.456-.18.923-.4l.85-.4V15.43l-.623.29-2.292.98-.704.325v-2.448l.664-.297 7.05-3.253 1.267-.56.19-.047v1.215l.042 1.215c.023 0 .4-.163.816-.362l.804-.362c.016 0 .02 2.318.008 5.15l-.02 5.15-1.69.777-.042 5.212-1.767.785v2.54l.784-.365 1.146-.51.985-.432.623-.286v2.614l-.807.355c-.444.195-.84.396-.883.446s-.085.646-.098 1.324l-.022 1.234-1.69.76-.022-1.238c-.016-.913-.048-1.237-.12-1.234-.054.002-.877.36-1.828.792l-1.73.79-.02 2.545.055 2.545c.042 0 .427-.163.856-.362l.85-.362c.04 0 .07.563.07 1.252 0 1.45-.116 1.353 1.008.833l.722-.316c.02 0 .04.573.04 1.272v1.272l-1.77.782v2.62l.342-.15.892-.4.583-.25c.018 0 .033.56.033 1.245v1.245l.18-.07a75.86 75.86 0 0 0 1.736-.802l1.588-.733c.02 0 .034.573.034 1.273v1.273l-3.615 1.618-.044-2.46-3.58 1.62-.001 2.504-3.578 1.618-.022-1.19c-.017-.91-.047-1.19-.126-1.19-.1 0-1.898.816-4.275 1.93l-1.126.483c-.22.08-.72.29-1.106.47l-.704.327v2.51l-.848.397-.925.397c-.046 0-.077-.5-.077-1.206l-.032-1.206c-.018 0-.416.18-.885.398l-.853.398v-1.288c0-1.496.13-1.397-1.09-.832l-.757.35-.044 2.613-1.81.812v2.507l-.824.376-.885.375c-.033 0-.06-1.123-.06-2.494zm.957-2.974l.813-.36v-2.528l-1.73.8-.022 1.257c-.013.743.008 1.246.052 1.23s.44-.19.887-.387zm2.32-3.627l.342-.15v-1.25l-.06-1.25c-.033 0-.43.17-.885.378l-.824.38v2.535l.543-.247.885-.396zm7.48-.847l1.37-.64.583-.267v-2.498l-.18.07-.885.396-.704.326v-1.283l-.04-1.283c-.022 0-.402.163-.845.362l-.885.362c-.05 0-.08-.47-.08-1.23v-1.23l1.8-.81.022 1.233.06 1.233c.048 0 1.473-.646 2.05-.93l1.488-.674 2.353-1.05 1.307-.593v-.616l.053-2.56c.045-1.645.036-1.943-.06-1.94-.062.002-.892.36-1.843.792l-1.73.79-.08 2.696-.872.393-.903.393c-.017 0-.04-.575-.053-1.278l-.022-1.278-.804.36-1.788.805-.983.446-.044 2.572-1.69.76-.022-1.234c-.015-.82-.05-1.234-.1-1.234-.1 0-3.455 1.515-3.55 1.602-.034.03-.052 1.198-.04 2.593l.02 2.536.845-.385.903-.39c.032-.002.068.555.08 1.237l.022 1.242 1.086-.48 1.77-.793.684-.312.044 2.55.44-.194 1.225-.568zm7.08-3.174l.342-.15v-1.298c0-1.16-.014-1.293-.13-1.25l-.885.386-.755.336v2.616l.543-.247.885-.396zm-12.89-7.04l.483-.234.044-2.577.863-.382.923-.38c.033.001.06.56.06 1.243v1.242l1.77-.82v-2.52l-.052-2.52c-.03 0-.407.163-.84.362l-.833.362c-.024 0-.043-.56-.043-1.247 0-.808-.03-1.247-.084-1.247-.046 0-.44.163-.873.362l-.84.362c-.03 0-.052-1.14-.052-2.532v-2.532l-.184.07c-.304.116-3.3 1.548-3.376 1.61-.034.03-.052 1.184-.04 2.562l.02 2.505 1.73-.792 1.8-.756c.11.065.072 2.41-.04 2.498-.055.043-.842.415-1.75.826l-1.75.826c-.126.098-.146 2.552-.02 2.552.044 0 .442-.163.885-.362l.845-.362c.022 0 .04.56.04 1.246v1.246l.422-.187.905-.42zm11.84-5.384l1.385-.628.022-1.29c.025-1.486-.116-1.258 1.128-1.82l.704-.32v-2.534l-.056-2.534c-.03 0-.845.35-1.8.78l-1.754.78v5.205l-1.85.87v2.497l.422-.19 1.808-.817zm-2.773-1.313l.543-.247v-2.537l-.065-2.537c-.1 0-3.42 1.523-3.496 1.6-.034.034-.052.625-.04 1.314l.022 1.252.872-.393.905-.393c.018 0 .033.56.033 1.244v1.244l.342-.15.885-.396zm-5.55-2.615l.623-.288V30.75l-.032-2.536c-.018 0-.416.18-.885.398l-.853.398v5.077l.26-.113.885-.4zm-7.55-1.736l.853-.398v-1.2l-.037-1.2c-.066 0-1.53.67-1.632.75-.073.054-.1.41-.1 1.272l.032 1.197c.018 0 .416-.18.885-.398zm21.894-2.23l.836-.375v-2.55l-.26.113-.885.4-.623.288v1.25l.05 1.25c.027 0 .425-.17.885-.375zM40.3 29.27l.704-.326v-1.25l-.037-1.25c-.02 0-.418.18-.885.397l-.848.397v2.5l.18-.07.885-.396zm12.737-3.245l.755-.336v-2.457l-.342.15-.885.396-.543.247v1.218c0 1.087.014 1.213.13 1.17l.885-.386zm-9.198-.953l.784-.354V22.19l-1.65.768-.022 1.267c-.012.697.006 1.252.04 1.234l.847-.387zm12.817-.655l.755-.336v-2.533l-1.77.82V23.6c0 1.11.014 1.237.13 1.192l.885-.386zm-.022-7.78l.778-.356V15.09l-.034-1.192c-.02 0-.4.16-.824.358l-.8.358-.022 1.218c-.012.67.01 1.205.047 1.2l.847-.384zm.796 24.16l.022-1.27 1.8-.81V36.1l.342-.15.885-.396.543-.247-.002 5.18-1.683.744-1.81.794c-.114.044-.126-.087-.106-1.22z" fill="#3b6121"/><path d="M33.766 60.546l-.032-2.493c-.018 0-.416.18-.885.398l-.853.398v-5.187l.704-.3c1.175-.518 1.066-.333 1.066-1.802v-1.27l1.77-.782v-5.113l-.342.15-.885.396-.543.247V41.32l-.04-3.857c-.02 0-.346.142-.722.316-1.125.52-1.01.618-1.007-.853L32 35.653l.73-.32c1.127-.493 1.036-.342 1.036-1.736 0-.66-.03-1.202-.07-1.202s-.417.163-.843.362l-.818.362c-.024 0-.034-.586-.02-1.3l.022-1.3 1.69-.77.044-2.6.85-.397.883-.397c.018 0 .032.56.032 1.247 0 .785.03 1.247.08 1.247.045 0 .832-.347 1.75-.772l1.77-.814c.08-.033.098.228.08 1.254l-.022 1.296-1.126.53-1.8.84-.664.3v2.535c0 2.38.01 2.53.14 2.48.077-.03.865-.387 1.75-.793l1.67-.703c.11.066.072 2.41-.04 2.498-.055.043-.842.415-1.75.826l-1.75.826c-.126.098-.146 2.552-.02 2.552.044 0 .442-.163.885-.362l.843-.362c.02 0 .048.557.06 1.237l.022 1.237.804-.36.905-.443c.073-.06.1-.43.1-1.34v-1.258l.865-.383.925-.38c.033.001.06.56.06 1.243v1.242l1.77-.82v-2.52l-.052-2.52c-.03 0-.407.163-.84.362l-.833.362c-.024 0-.043-.56-.043-1.247 0-.808-.03-1.247-.084-1.247-.046 0-.44.163-.873.362l-.84.362c-.03 0-.052-1.142-.052-2.538v-2.538l1.77-.82v-7.705l.848-.397.925-.397c.048 0 .077.974.077 2.542l.1 2.5.925-.423.824-.382v-2.56l.855-.4.884-.37c.016.016.04 1.158.05 2.537l.073 2.507c.03 0 .436-.18.905-.398l.853-.398V23.1l.824-.382.925-.423c.078-.032.1.242.1 1.215l.06 1.256c.033 0 .43-.168.885-.375l.824-.376V21.45l1.846-.867.044-2.59.875-.4.905-.4c.017 0 .03.56.03 1.247l.06 1.245c.033-.001.838-.356 1.8-.8l1.73-.788.044-2.6.34-.15.883-.395.544-.247-.042 7.72-1.69.777-.042 5.212-1.767.785v2.54l.784-.365 1.146-.51.985-.432.623-.286v2.614l-.807.355c-.444.195-.84.396-.883.446s-.085.646-.098 1.324l-.022 1.234-1.69.76-.022-1.238c-.016-.913-.048-1.237-.12-1.234-.054.002-.877.36-1.828.792l-1.73.79-.02 2.545.055 2.545c.042 0 .427-.163.856-.362l.85-.362c.04 0 .07.563.07 1.252 0 1.45-.116 1.353 1.008.833l.722-.316c.02 0 .04.573.04 1.272v1.272l-1.77.782v2.62l.342-.15.892-.4.583-.25c.018 0 .033.56.033 1.245v1.245l.18-.07a75.86 75.86 0 0 0 1.736-.802l1.588-.733c.02 0 .034.573.034 1.273v1.273l-3.615 1.618-.044-2.46-3.58 1.62-.001 2.504-3.578 1.618-.022-1.19c-.017-.91-.047-1.19-.126-1.19-.1 0-1.898.816-4.275 1.93l-1.126.483c-.22.08-.72.29-1.106.47l-.704.327v2.51l-.848.397-.925.397c-.046 0-.077-.5-.077-1.206l-.032-1.206c-.018 0-.416.18-.885.398l-.853.398v-1.288c0-1.496.13-1.397-1.09-.832l-.757.35-.044 2.613-1.81.812v2.507l-.824.376-.885.375c-.033 0-.06-1.123-.06-2.494zm.957-2.974l.813-.36v-2.528l-1.73.8-.022 1.257c-.013.743.008 1.246.052 1.23s.44-.19.887-.387zm2.32-3.627l.342-.15v-1.25l-.06-1.25c-.033 0-.43.17-.885.378l-.824.38v2.535l.543-.247.885-.396zm7.48-.847l1.37-.64.583-.267v-2.498l-.18.07-.885.396-.704.326v-1.283l-.04-1.283c-.022 0-.402.163-.845.362l-.885.362c-.05 0-.08-.47-.08-1.23v-1.23l1.8-.81.022 1.233.06 1.233c.048 0 1.473-.646 2.05-.93l1.488-.674 2.353-1.05 1.307-.593v-.616l.053-2.56c.045-1.645.036-1.943-.06-1.94-.062.002-.892.36-1.843.792l-1.73.79-.08 2.696-.872.393-.903.393c-.017 0-.04-.575-.053-1.278l-.022-1.278-.804.36-1.788.805-.983.446-.044 2.572-1.69.76-.022-1.234c-.015-.82-.05-1.234-.1-1.234-.1 0-3.455 1.515-3.55 1.602-.034.03-.052 1.198-.04 2.593l.02 2.536.845-.385.903-.39c.032-.002.068.555.08 1.237l.022 1.242 1.086-.48 1.77-.793.684-.312.044 2.55.44-.194 1.225-.568zm7.08-3.174l.342-.15v-1.298c0-1.16-.014-1.293-.13-1.25l-.885.386-.755.336v2.616l.543-.247.885-.396zM50.554 37.5l1.385-.628.022-1.29c.025-1.486-.116-1.258 1.128-1.82l.704-.32v-2.534l-.056-2.534c-.03 0-.845.35-1.8.78l-1.754.78v5.205l-1.85.87v2.497l.422-.19 1.808-.817zm-2.773-1.313l.543-.247v-2.537l-.065-2.537c-.1 0-3.42 1.523-3.496 1.6-.034.034-.052.625-.04 1.314l.022 1.252.872-.393.905-.393c.018 0 .033.56.033 1.244v1.244l.342-.15.885-.396zm-5.55-2.615l.623-.288V30.75l-.032-2.536c-.018 0-.416.18-.885.398l-.853.398v5.077l.26-.113.885-.4zm-7.55-1.736l.853-.398v-1.2l-.037-1.2c-.066 0-1.53.67-1.632.75-.073.054-.1.41-.1 1.272l.032 1.197c.018 0 .416-.18.885-.398zm21.894-2.23l.836-.375v-2.55l-.26.113-.885.4-.623.288v1.25l.05 1.25c.027 0 .425-.17.885-.375zm-3.54-3.582l.755-.336v-2.457l-.342.15-.885.396-.543.247v1.218c0 1.087.014 1.213.13 1.17l.885-.386zm3.62-1.61l.755-.336v-2.533l-1.77.82V23.6c0 1.11.014 1.237.13 1.192l.885-.386zm.773 16.38l.022-1.27 1.8-.81V36.1l.342-.15.885-.396.543-.247-.002 5.18-1.683.744-1.81.794c-.114.044-.126-.087-.106-1.22z" fill="#4f3624"/><path d="M35.554 58.48l.022-1.273.71-.342.905-.39.196-.05v2.478l-.865.392-.927.424c-.034.018-.052-.54-.04-1.24zm5.45-2.48l-.032-1.247c-.018 0-.416.18-.885.398l-.853.398v-2.57l.76-.352c1.22-.566 1.09-.66 1.09.79v1.25l.543-.247.885-.396.342-.15v2.58l-.848.397-.925.397c-.046 0-.077-.505-.077-1.247zm3.7-1.688v-1.246l.765-.357c1.22-.57 1.093-.665 1.067.8l-.022 1.262-.872.393-.905.393c-.018 0-.033-.56-.033-1.246zm-10.938-.18v-1.278l.755-.336.885-.386c.116-.044.13.086.13 1.228v1.277l-.813.36-.885.387c-.04.015-.072-.532-.072-1.25zm18.187-2.938l.06-2.583.05-1.517 1.69-.76.02 2.536-.054 2.61c-.1.1-1.595.78-1.702.78-.043 0-.07-.457-.064-1.066zm7.31-.96v-1.24l.755-.336.885-.386c.116-.044.13.083.13 1.185v1.235l-.744.337-.884.39c-.13.05-.14-.038-.14-1.186zm-10.938-.14v-1.296l.342-.15.885-.396.543-.247v2.61l-.813.36-.885.387c-.04.015-.072-.54-.072-1.27zm-12.7-4.517l.022-1.296 1.69-.76.022 1.248c.013.713-.01 1.28-.054 1.324a16.5 16.5 0 0 1-1.665.78c-.02 0-.026-.583-.014-1.296zm10.938-2.414l.022-1.295.764-.348.865-.353c.076-.003.1.297.1 1.246v1.25l-.704.326-.887.397-.183.072zm-5.568-.034v-1.25l.462-.204 1.428-.668 1.387-.646.422-.182V37.58l.865-.383.927-.38c.034.001.052.57.04 1.265-.025 1.455.115 1.23-1.128 1.794l-.704.32v2.496l-1.267.613-2.36 1.075c-.04 0-.073-.556-.073-1.25zm12.788-.664v-1.27l.847-.378.927-.378c.05 0 .07.466.057 1.255l-.022 1.255-.872.393-.905.393c-.018 0-.033-.572-.033-1.27zm5.47-2.516v-1.285l.342-.15.887-.397.545-.247-.044 2.574-1.73.8zM33.766 37.44V34.85l.857-.383.877-.362c.01.012.033 1.16.048 2.555l.028 2.534-.282.137-.905.42-.623.283zm14.576-2.802l.022-1.296.845-.384c.464-.21.873-.358.907-.327s.053.597.04 1.257l-.022 1.2-.483.232-.907.422-.424.2zm9.088-1.572l.022-1.26.845-.385.905-.39c.033-.002.06.568.06 1.267v1.27l-.847.378-.927.378c-.05 0-.07-.468-.057-1.26zm-14.558-1.082l.022-1.295 3.58-1.62v-2.54l-.342.15-1.347.61-1.9.845-1.347.593-.462.208v-7.688l.755-.336.885-.386c.117-.045.13.188.13 2.492l.06 2.538c.033-.002.44-.177.905-.39l.845-.385.08-2.63 1.69-.77.02 2.53.097 2.53c.042 0 .457-.18.924-.397l.848-.397v-2.546l.865-.383.923-.38c.032.001.068.557.08 1.235l.022 1.234 1.69-.76.022 1.238c.012.68.055 1.238.095 1.238s.424-.163.853-.362l.85-.362c.04 0 .07.556.07 1.234v1.234l-.824.382-.923.422c-.075.03-.104-.263-.12-1.21l-.022-1.25-3.58 1.63v2.52l-1.106.505-2.272 1.066-2.063.943c-.018 0-.022-.583-.01-1.295zm-10.876-.18v-1.234l.824-.376.885-.375c.033 0 .06.556.06 1.234v1.233l-.836.375-.885.375c-.027 0-.05-.555-.05-1.234zm7.24-.703v-1.286l.342-.15.885-.396.543-.247v2.573l-.342.15-.885.396-.543.247zm-3.6-.93l.022-1.255 1.592-.753 1.792-.804.2-.05-.045 2.464-1.65.773-1.792.826c-.134.05-.14-.028-.12-1.2zm-1.868-1.76v-1.25l.342-.15.885-.396.543-.247v2.54l-.824.376-.885.375c-.033 0-.06-.563-.06-1.25zm23.727-5.62c0-.887-.027-1.253-.092-1.253-.05 0-.447.163-.882.362l-.83.362c-.023 0-.05-.56-.063-1.244l-.022-1.244-1.73.8V17.99l.853-.398.885-.398c.018 0 .032.56.032 1.247l.06 1.245c.033-.001.838-.355 1.8-.786l1.73-.785.044-2.586.822-.375.883-.374c.033 0 .06.57.058 1.268l-.002 1.267-1.766.787v5.17l-.813.36-.885.387c-.04.015-.072-.522-.072-1.227zm-5.468-.11l.001-1.265.813-.362.883-.39c.038-.015.07.54.07 1.23v1.257l-.704.326-.885.396-.18.07.001-1.265z" fill="#362518"/></svg>