<svg viewBox="0,0,347,350" xmlns="http://www.w3.org/2000/svg" xmlns:xlink="http://www.w3.org/1999/xlink" overflow="hidden"><defs><clipPath id="clip0"><rect x="467" y="174" width="347" height="350"/></clipPath><linearGradient x1="457.16" y1="186.919" x2="733.84" y2="419.081" gradientUnits="userSpaceOnUse" spreadMethod="reflect" id="fill1"><stop offset="0" stop-color="#75D4FF"/><stop offset="0.17" stop-color="#75D4FF"/><stop offset="0.9" stop-color="#5624E4"/><stop offset="1" stop-color="#5624E4"/></linearGradient><linearGradient x1="596.708" y1="240.074" x2="773.292" y2="545.926" gradientUnits="userSpaceOnUse" spreadMethod="reflect" id="fill2"><stop offset="0" stop-color="#FDAA6B"/><stop offset="0.9" stop-color="#F2DB00"/><stop offset="1" stop-color="#F2DB00"/></linearGradient></defs><g clip-path="url(#clip0)" transform="translate(-467 -174)"><path d="M638.174 174.003C623.971 174.069 610.408 175.283 598.473 177.399 563.315 183.623 556.932 196.65 556.932 220.673L556.932 252.401 640.014 252.401 640.014 262.977 556.932 262.977 525.751 262.977C501.605 262.977 480.462 277.52 473.849 305.185 466.221 336.895 465.882 356.682 473.849 389.793 479.755 414.439 493.859 432 518.005 432L546.57 432 546.57 393.965C546.57 366.487 570.297 342.249 598.473 342.249L681.459 342.249C704.559 342.249 723 323.191 723 299.945L723 220.673C723 198.112 704.005 181.164 681.459 177.399 667.186 175.018 652.378 173.937 638.174 174.003ZM593.244 199.521C601.826 199.521 608.834 206.658 608.834 215.434 608.834 224.178 601.826 231.249 593.244 231.249 584.631 231.249 577.654 224.178 577.654 215.434 577.654 206.658 584.631 199.521 593.244 199.521Z" fill="url(#fill1)" fill-rule="evenodd"/><path d="M733.762 263 733.762 299.971C733.762 328.634 709.466 352.758 681.762 352.758L598.62 352.758C575.845 352.758 557 372.254 557 395.066L557 474.344C557 496.908 576.616 510.179 598.62 516.652 624.968 524.401 650.235 525.802 681.762 516.652 702.717 510.583 723.381 498.37 723.381 474.344L723.381 442.614 640.239 442.614 640.239 432.037 723.381 432.037 765.001 432.037C789.192 432.037 798.207 415.159 806.62 389.826 815.311 363.746 814.941 338.666 806.62 305.211 800.641 281.123 789.223 263 765.001 263ZM687 463.768C695.629 463.768 702.62 470.839 702.62 479.584 702.62 488.361 695.629 495.498 687 495.498 678.402 495.498 671.381 488.361 671.381 479.584 671.381 470.839 678.402 463.768 687 463.768Z" fill="url(#fill2)" fill-rule="evenodd"/></g></svg>