<svg viewBox="0,0,508,314" xmlns="http://www.w3.org/2000/svg" xmlns:xlink="http://www.w3.org/1999/xlink" overflow="hidden"><defs><filter id="fx0" x="-10%" y="-10%" width="120%" height="120%" filterUnits="userSpaceOnUse" primitiveUnits="userSpaceOnUse"><feComponentTransfer color-interpolation-filters="sRGB"><feFuncR type="discrete" tableValues="0 0"/><feFuncG type="discrete" tableValues="0 0"/><feFuncB type="discrete" tableValues="0 0"/><feFuncA type="linear" slope="0.188235" intercept="0"/></feComponentTransfer><feGaussianBlur stdDeviation="4.44444 4.44444"/></filter><filter id="fx1" x="-10%" y="-10%" width="120%" height="120%" filterUnits="userSpaceOnUse" primitiveUnits="userSpaceOnUse"><feComponentTransfer color-interpolation-filters="sRGB"><feFuncR type="discrete" tableValues="0 0"/><feFuncG type="discrete" tableValues="0 0"/><feFuncB type="discrete" tableValues="0 0"/><feFuncA type="linear" slope="0.188235" intercept="0"/></feComponentTransfer><feGaussianBlur stdDeviation="4.46061 4.46592"/></filter><filter id="fx2" x="-10%" y="-10%" width="120%" height="120%" filterUnits="userSpaceOnUse" primitiveUnits="userSpaceOnUse"><feComponentTransfer color-interpolation-filters="sRGB"><feFuncR type="discrete" tableValues="0 0"/><feFuncG type="discrete" tableValues="0 0"/><feFuncB type="discrete" tableValues="0 0"/><feFuncA type="linear" slope="0.188235" intercept="0"/></feComponentTransfer><feGaussianBlur stdDeviation="4.46701 4.48"/></filter><clipPath id="clip3"><rect x="357" y="203" width="508" height="314"/></clipPath><linearGradient x1="357" y1="347.5" x2="458" y2="347.5" gradientUnits="userSpaceOnUse" spreadMethod="reflect" id="fill4"><stop offset="0" stop-color="#B7EEFF" stop-opacity="0"/><stop offset="0.78" stop-color="#6CDAFC" stop-opacity="0.788235"/><stop offset="1" stop-color="#6CDAFC" stop-opacity="0.788235"/></linearGradient><linearGradient x1="357" y1="428" x2="458" y2="428" gradientUnits="userSpaceOnUse" spreadMethod="reflect" id="fill5"><stop offset="0" stop-color="#B7EEFF" stop-opacity="0"/><stop offset="0.78" stop-color="#6CDAFC" stop-opacity="0.788235"/><stop offset="1" stop-color="#6CDAFC" stop-opacity="0.788235"/></linearGradient><linearGradient x1="357" y1="267" x2="458" y2="267" gradientUnits="userSpaceOnUse" spreadMethod="reflect" id="fill6"><stop offset="0" stop-color="#B7EEFF" stop-opacity="0"/><stop offset="0.78" stop-color="#6CDAFC" stop-opacity="0.788235"/><stop offset="1" stop-color="#6CDAFC" stop-opacity="0.788235"/></linearGradient><linearGradient x1="516.598" y1="146.301" x2="763.331" y2="573.657" gradientUnits="userSpaceOnUse" spreadMethod="reflect" id="fill7"><stop offset="0" stop-color="#79C9FB"/><stop offset="0.9" stop-color="#1255EC"/><stop offset="1" stop-color="#1255EC"/></linearGradient><linearGradient x1="537.974" y1="183.324" x2="741.959" y2="536.637" gradientUnits="userSpaceOnUse" spreadMethod="reflect" id="fill8"><stop offset="0" stop-color="#B7EEFF"/><stop offset="0.9" stop-color="#62E8FA"/><stop offset="1" stop-color="#62E8FA"/></linearGradient><linearGradient x1="580.544" y1="257.926" x2="698.38" y2="462.023" gradientUnits="userSpaceOnUse" spreadMethod="reflect" id="fill9"><stop offset="0" stop-color="#79C9FB"/><stop offset="0.9" stop-color="#1255EC"/><stop offset="1" stop-color="#1255EC"/></linearGradient><clipPath id="clip10"><rect x="0" y="0" width="99" height="63"/></clipPath></defs><g clip-path="url(#clip3)" transform="translate(-357 -203)"><rect x="357" y="324" width="101" height="47" fill="url(#fill4)"/><rect x="357" y="405" width="101" height="46" fill="url(#fill5)"/><rect x="357" y="244" width="101" height="46" fill="url(#fill6)"/><path d="M415.737 460.783 453.304 259.174C459.157 227.765 486.684 204.979 518.778 204.979L818.916 204.979C844.348 204.979 864.965 225.501 864.965 250.815 864.965 253.619 864.706 256.417 864.193 259.174L826.625 460.783C820.773 492.193 793.245 514.979 761.152 514.979L461.014 514.979C435.581 514.979 414.964 494.457 414.964 469.142 414.964 466.338 415.223 463.54 415.737 460.783Z" fill="url(#fill7)" fill-rule="evenodd"/><g filter="url(#fx0)" transform="matrix(2 0 0 2 420 202)"><g><path d="M14.4077 122.851 31.0237 35.1286C33.32 23.0062 44.0326 14.2201 56.5162 14.2201L187.987 14.2201C197.86 14.2201 205.863 22.127 205.863 31.8802 205.863 32.9701 205.761 34.0577 205.558 35.1286L188.942 122.851C186.646 134.974 175.934 143.76 163.45 143.76L31.9794 143.76C22.1064 143.76 14.1031 135.853 14.1031 126.1 14.1031 125.01 14.2049 123.923 14.4077 122.851Z" fill="#FF0000" fill-rule="evenodd"/></g></g><path d="M452.563 445.982 485.144 273.977C489.646 250.208 510.651 232.98 535.129 232.98L792.914 232.98C812.273 232.98 827.966 248.484 827.966 267.608 827.966 269.745 827.766 271.877 827.368 273.977L794.788 445.982C790.286 469.752 769.281 486.98 744.803 486.98L487.018 486.98C467.659 486.98 451.966 471.476 451.966 452.352 451.966 450.215 452.166 448.083 452.563 445.982Z" fill="url(#fill8)" fill-rule="evenodd"/><g filter="url(#fx1)" transform="matrix(1.99275 0 0 1.99038 502 256)"><g><path d="M14.2101 72.587 21.8939 31.8896C23.8168 21.7047 32.861 14.3161 43.4053 14.3161L108.876 14.3161C117.232 14.3161 124.005 20.9705 124.005 29.1792 124.005 30.0884 123.92 30.9958 123.752 31.8896L116.068 72.587C114.145 82.7722 105.101 90.1607 94.5563 90.1607L29.0857 90.1607C20.7302 90.1607 13.9564 83.5062 13.9564 75.2977 13.9564 74.3885 14.0413 73.4811 14.2101 72.587Z" fill="#FF0000" fill-rule="evenodd"/></g></g><path d="M532.457 399.682 547.469 320.267C551.226 300.392 568.895 285.975 589.495 285.975L717.404 285.975C733.728 285.975 746.962 298.96 746.962 314.978 746.962 316.752 746.796 318.523 746.466 320.267L731.454 399.682C727.698 419.557 710.028 433.975 689.428 433.975L561.52 433.975C545.195 433.975 531.962 420.989 531.962 404.971 531.962 403.197 532.127 401.427 532.457 399.682Z" fill="url(#fill9)" fill-rule="evenodd"/><g filter="url(#fx2)" transform="matrix(1.9899 0 0 1.98413 545 275)"><g clip-path="url(#clip10)" transform="translate(-5.68434e-14 0)"><path d="M13.9557 39.486 16.8754 23.4844C17.8045 18.3919 24.7924 14.2636 32.4833 14.2636L72.7573 14.2636C80.4482 14.2636 85.9295 18.3919 85.0003 23.4844L82.0808 39.486C81.1515 44.5786 74.1636 48.707 66.4729 48.707L26.1989 48.707C18.508 48.707 13.0265 44.5786 13.9557 39.486Z" fill="#FFFFFF" fill-rule="evenodd"/></g></g><path d="M574.156 353.034 579.852 321.907C581.665 312.001 595.297 303.971 610.301 303.971L688.871 303.971C703.875 303.971 714.569 312.001 712.756 321.907L707.06 353.034C705.247 362.94 691.615 370.971 676.611 370.971L598.041 370.971C583.037 370.971 572.344 362.94 574.156 353.034Z" fill="#FFFFFF" fill-rule="evenodd"/></g></svg>