<svg viewBox="-6,-5,300,233" xmlns="http://www.w3.org/2000/svg" xmlns:xlink="http://www.w3.org/1999/xlink" overflow="hidden"><defs><filter id="fx0" x="-10%" y="-10%" width="120%" height="120%" filterUnits="userSpaceOnUse" primitiveUnits="userSpaceOnUse"><feComponentTransfer color-interpolation-filters="sRGB"><feFuncR type="discrete" tableValues="0 0"/><feFuncG type="discrete" tableValues="0 0"/><feFuncB type="discrete" tableValues="0 0"/><feFuncA type="linear" slope="1" intercept="0"/></feComponentTransfer><feGaussianBlur stdDeviation="6.88889 6.88889"/></filter><filter id="fx1" x="-10%" y="-10%" width="120%" height="120%" filterUnits="userSpaceOnUse" primitiveUnits="userSpaceOnUse"><feComponentTransfer color-interpolation-filters="sRGB"><feFuncR type="discrete" tableValues="0 0"/><feFuncG type="discrete" tableValues="0 0"/><feFuncB type="discrete" tableValues="0 0"/><feFuncA type="linear" slope="1" intercept="0"/></feComponentTransfer><feGaussianBlur stdDeviation="6.88889 6.92781"/></filter><clipPath id="clip2"><rect x="493" y="238" width="287" height="223"/></clipPath><linearGradient x1="553.027" y1="204.921" x2="719.973" y2="494.079" gradientUnits="userSpaceOnUse" spreadMethod="reflect" id="fill3"><stop offset="0" stop-color="#595959"/><stop offset="0.24" stop-color="#595959"/><stop offset="0.74" stop-color="#3C3C3C"/><stop offset="1" stop-color="#3C3C3C"/></linearGradient><clipPath id="clip4"><rect x="-3.5" y="-3.5" width="86" height="64"/></clipPath><clipPath id="clip5"><rect x="0" y="0" width="79" height="55"/></clipPath><clipPath id="clip6"><rect x="-3.5" y="-3.51978" width="79" height="97.0452"/></clipPath><clipPath id="clip7"><rect x="0" y="0" width="72" height="89"/></clipPath></defs><g clip-path="url(#clip2)" transform="translate(-493 -238)"><path d="M494 275.834C494 255.491 510.491 239 530.834 239L742.166 239C762.509 239 779 255.491 779 275.834L779 423.166C779 443.509 762.509 460 742.166 460L530.834 460C510.491 460 494 443.509 494 423.166Z" fill="url(#fill3)" fill-rule="evenodd"/><g clip-path="url(#clip4)" filter="url(#fx0)" transform="matrix(2 0 0 2 561 305)"><g clip-path="url(#clip5)"><path d="M21.68 27.5C21.68 24.2194 24.3394 21.56 27.62 21.56L51.38 21.56C54.6606 21.56 57.32 24.2194 57.32 27.5L57.32 27.5C57.32 30.7805 54.6606 33.4399 51.38 33.4399L27.62 33.4399C24.3394 33.4399 21.68 30.7805 21.68 27.5Z" fill="#F2F2F2" fill-rule="evenodd"/></g></g><path d="M607 360C607 353.925 611.925 349 618 349L662 349C668.075 349 673 353.925 673 360L673 360C673 366.075 668.075 371 662 371L618 371C611.925 371 607 366.075 607 360Z" fill="#F2F2F2" fill-rule="evenodd"/><g clip-path="url(#clip6)" filter="url(#fx1)" transform="matrix(2 0 0 1.98876 494 239)"><g clip-path="url(#clip7)" transform="matrix(1 0 0 1 0 1.42109e-14)"><path d="M27.3189 21.3981C28.8413 21.3981 30.3637 21.9821 31.5252 23.1503L48.2235 39.9429 48.6112 40.2018C49.7728 41.3699 50.3535 42.9009 50.3535 44.4318L50.3408 44.4973 50.3535 44.5629C50.3535 46.0938 49.7728 47.6249 48.6112 48.793L48.2235 49.0519 31.5252 65.8445C29.2021 68.1807 25.4356 68.1807 23.1125 65.8445 20.7894 63.5083 20.7894 59.7205 23.1125 57.3843L35.9271 44.4973 23.1125 31.6104C20.7894 29.2743 20.7894 25.4865 23.1125 23.1503 24.2741 21.9822 25.7965 21.3981 27.3189 21.3981Z" fill="#F2F2F2" fill-rule="evenodd"/></g></g><path d="M549.903 284.959C552.723 284.959 555.542 286.034 557.693 288.185L588.616 319.108 589.334 319.585C591.485 321.736 592.56 324.555 592.56 327.374L592.537 327.495 592.56 327.615C592.56 330.435 591.485 333.254 589.334 335.405L588.616 335.882 557.693 366.804C553.391 371.106 546.416 371.106 542.114 366.804 537.812 362.502 537.812 355.527 542.114 351.225L565.844 327.495 542.114 303.764C537.812 299.462 537.812 292.487 542.114 288.185 544.265 286.034 547.084 284.959 549.903 284.959Z" fill="#F2F2F2" fill-rule="evenodd"/></g></svg>