<svg viewBox="0,0,257,344" xmlns="http://www.w3.org/2000/svg" xmlns:xlink="http://www.w3.org/1999/xlink" overflow="hidden"><defs><clipPath id="user-clip0"><rect x="382" y="195" width="257" height="344"/></clipPath><linearGradient x1="351.462" y1="233.56" x2="669.496" y2="500.422" gradientUnits="userSpaceOnUse" spreadMethod="reflect" id="user-fill1"><stop offset="0" stop-color="#A964C8"/><stop offset="0.35" stop-color="#A964C8"/><stop offset="0.87" stop-color="#2D8AD5"/><stop offset="1" stop-color="#2D8AD5"/></linearGradient><linearGradient x1="351.462" y1="233.56" x2="669.496" y2="500.422" gradientUnits="userSpaceOnUse" spreadMethod="reflect" id="user-fill2"><stop offset="0" stop-color="#A964C8"/><stop offset="0.35" stop-color="#A964C8"/><stop offset="0.87" stop-color="#2D8AD5"/><stop offset="1" stop-color="#2D8AD5"/></linearGradient></defs><g clip-path="url(#user-clip0)" transform="translate(-382 -195)"><path d="M637.755 433.872C642.215 515.221 579.577 537.983 508.011 537.983 436.444 537.983 376.676 507.833 383.513 437.11 383.109 425.234 389.59 414.133 398.634 409.891 413.82 402.768 444.753 402.936 507.484 402.997 570.214 403.058 609.164 402.279 621.521 407.947 633.878 413.614 638.011 424.609 637.755 433.872Z" fill="url(#user-fill1)" fill-rule="evenodd"/><path d="M422 285C422 235.847 461.623 196 510.5 196 559.377 196 599 235.847 599 285 599 334.153 559.377 374 510.5 374 461.623 374 422 334.153 422 285Z" fill="url(#user-fill2)" fill-rule="evenodd"/></g></svg>