<?xml version="1.0" ?><svg id="Capa_1" style="enable-background:new 0 0 128 128;" version="1.1" viewBox="0 0 128 128" xml:space="preserve" xmlns="http://www.w3.org/2000/svg" xmlns:xlink="http://www.w3.org/1999/xlink"><style type="text/css">
	.st0{fill:#21A365;}
	.st1{fill:#107C41;}
	.st2{fill:#185B37;}
	.st3{fill:#33C481;}
	.st4{fill:#17864C;}
	.st5{fill:#FFFFFF;}
	.st6{fill:#036C70;}
	.st7{fill:#1A9BA1;}
	.st8{fill:#37C6D0;}
	.st9{fill:#04878B;}
	.st10{fill:#4F59CA;}
	.st11{fill:#7B82EA;}
	.st12{fill:#4C53BB;}
	.st13{fill:#0F78D5;}
	.st14{fill:#29A7EB;}
	.st15{fill:#0358A8;}
	.st16{fill:#0F79D6;}
	.st17{fill:#038387;}
	.st18{fill:#048A8E;}
	.st19{fill:#C8421D;}
	.st20{fill:#FF8F6A;}
	.st21{fill:#ED6B47;}
	.st22{fill:#891323;}
	.st23{fill:#AF2131;}
	.st24{fill:#C94E60;}
	.st25{fill:#E08195;}
	.st26{fill:#B42839;}
	.st27{fill:#0464B8;}
	.st28{fill:#0377D4;}
	.st29{fill:#4FD8FF;}
	.st30{fill:#1681D7;}
	.st31{fill:#0178D4;}
	.st32{fill:#042071;}
	.st33{fill:#168FDE;}
	.st34{fill:#CA64EA;}
	.st35{fill:#7E1FAF;}
	.st36{fill:#AE4BD5;}
	.st37{fill:#9332BF;}
	.st38{fill:#7719AA;}
	.st39{fill:#0078D4;}
	.st40{fill:#1490DF;}
	.st41{fill:#0364B8;}
	.st42{fill:#28A8EA;}
	.st43{fill:#41A5ED;}
	.st44{fill:#2C7BD5;}
	.st45{fill:#195ABE;}
	.st46{fill:#103E91;}
	.st47{fill:#2166C3;}
	.st48{opacity:0.2;}
</style><path class="st43" d="M128,34.2H29.6V10.3c0-3.2,2.6-5.8,5.8-5.8h86.7c3.2,0,5.8,2.6,5.8,5.8V34.2z"/><rect class="st44" height="29.8" width="98.4" x="29.6" y="34.2"/><rect class="st45" height="29.8" width="98.4" x="29.6" y="64"/><path class="st46" d="M122.2,123.5H35.5c-3.2,0-5.8-2.6-5.8-5.8V93.8H128v23.9C128,120.9,125.4,123.5,122.2,123.5z"/><path class="st47" d="M59.5,96.5h-53c-3.5,0-6.4-2.9-6.4-6.4V37.9c0-3.5,2.9-6.4,6.4-6.4h53c3.5,0,6.4,2.9,6.4,6.4v52.2  C65.9,93.6,63.1,96.5,59.5,96.5z"/><g><path class="st5" d="M19.3,82.4l-8.9-35.9h7.1l3.5,16.3c0.9,4.4,1.8,8.9,2.4,12.5h0.1c0.6-3.8,1.6-8,2.6-12.6L30,46.5h7L40.6,63   c0.9,4.3,1.7,8.2,2.2,12.1h0.1c0.6-4,1.5-8,2.5-12.4l3.8-16.2h6.8l-9.8,35.9H39l-3.8-16.9c-0.9-4-1.6-7.4-2.1-11.3h-0.1   c-0.6,3.8-1.3,7.3-2.4,11.4l-4.2,16.9H19.3z"/></g><path class="st48" d="M65.9,37.3c0,0.2,0,0.4,0,0.6v52.2c0,3.5-2.9,6.4-6.4,6.4H29.7v5.7h35.2c3.5,0,6.4-2.9,6.4-6.4V43.6  C71.3,40.4,69,37.7,65.9,37.3z"/></svg>