<svg width="257" height="210" xmlns="http://www.w3.org/2000/svg" xmlns:xlink="http://www.w3.org/1999/xlink" overflow="hidden"><defs><clipPath id="clip0"><rect x="194" y="174" width="257" height="210"/></clipPath><linearGradient x1="371" y1="145.246" x2="274" y2="411.754" gradientUnits="userSpaceOnUse" spreadMethod="reflect" id="fill1"><stop offset="0" stop-color="#2983CC"/><stop offset="0.19" stop-color="#2983CC"/><stop offset="0.6" stop-color="#A964C8"/><stop offset="1" stop-color="#181717"/></linearGradient></defs><g clip-path="url(#clip0)" transform="translate(-194 -174)"><path d="M210.938 204.816C225.042 198.915 245.267 192.551 264.934 190.573 286.131 188.436 304.108 191.578 314.531 202.567L314.531 358.008C299.63 349.555 280.744 348.391 263.324 350.145 244.518 352.059 225.552 357.498 210.938 363.08L210.938 204.816ZM330.469 202.567C340.892 191.578 358.869 188.436 380.066 190.573 399.733 192.551 419.958 198.915 434.062 204.816L434.062 363.08C419.432 357.498 400.482 352.043 381.676 350.161 364.24 348.391 345.37 349.539 330.469 358.008L330.469 202.567ZM322.5 188.149C306.802 174.64 284.043 172.63 263.324 174.704 239.195 177.144 214.842 185.422 199.67 192.328 196.827 193.622 195.001 196.459 195 199.585L195 375.026C195.001 379.43 198.57 382.999 202.971 382.998 204.108 382.998 205.232 382.754 206.268 382.283 220.325 375.903 242.972 368.231 264.918 366.014 287.374 363.75 306.196 367.402 316.284 380.002 319.038 383.437 324.054 383.988 327.487 381.232 327.94 380.868 328.352 380.455 328.716 380.002 338.804 367.402 357.626 363.75 380.066 366.014 402.028 368.231 424.691 375.903 438.732 382.283 442.738 384.106 447.463 382.334 449.285 378.325 449.756 377.289 450 376.164 450 375.026L450 199.585C449.999 196.459 448.173 193.622 445.33 192.328 430.158 185.422 405.805 177.144 381.676 174.704 360.957 172.614 338.198 174.64 322.5 188.149Z" fill="url(#fill1)" fill-rule="evenodd"/></g></svg>