<svg width="275" height="303" xmlns="http://www.w3.org/2000/svg" xmlns:xlink="http://www.w3.org/1999/xlink" overflow="hidden"><defs><clipPath id="clip0"><rect x="224" y="210" width="275" height="303"/></clipPath><linearGradient x1="425.957" y1="184.336" x2="297.161" y2="538.2" gradientUnits="userSpaceOnUse" spreadMethod="reflect" id="fill1"><stop offset="0" stop-color="#FFD966"/><stop offset="0.3" stop-color="#FFD966"/><stop offset="0.6" stop-color="#A964C8"/><stop offset="1" stop-color="#181717"/></linearGradient><linearGradient x1="425.957" y1="184.336" x2="297.161" y2="538.2" gradientUnits="userSpaceOnUse" spreadMethod="reflect" id="fill2"><stop offset="0" stop-color="#FFD966"/><stop offset="0.3" stop-color="#FFD966"/><stop offset="0.6" stop-color="#A964C8"/><stop offset="1" stop-color="#181717"/></linearGradient><linearGradient x1="425.957" y1="184.336" x2="297.161" y2="538.2" gradientUnits="userSpaceOnUse" spreadMethod="reflect" id="fill3"><stop offset="0" stop-color="#FFD966"/><stop offset="0.3" stop-color="#FFD966"/><stop offset="0.6" stop-color="#A964C8"/><stop offset="1" stop-color="#181717"/></linearGradient><linearGradient x1="425.957" y1="184.336" x2="297.161" y2="538.2" gradientUnits="userSpaceOnUse" spreadMethod="reflect" id="fill4"><stop offset="0" stop-color="#FFD966"/><stop offset="0.3" stop-color="#FFD966"/><stop offset="0.6" stop-color="#A964C8"/><stop offset="1" stop-color="#181717"/></linearGradient></defs><g clip-path="url(#clip0)" transform="translate(-224 -210)"><path d="M272.157 395.177 336.421 448.754C341.883 453.308 342.578 460.968 338.024 466.43 333.47 471.893 325.81 472.587 320.348 468.033L256.084 414.456C250.622 409.902 249.927 402.242 254.481 396.78 259.035 391.318 266.695 390.623 272.157 395.177Z" fill="url(#fill1)" fill-rule="evenodd"/><path d="M245.369 427.309 309.632 480.886C315.095 485.44 315.789 493.1 311.235 498.562 306.681 504.025 299.022 504.719 293.559 500.165L229.295 446.588C223.833 442.034 223.139 434.374 227.692 428.912 232.246 423.45 239.906 422.755 245.369 427.309Z" fill="url(#fill2)" fill-rule="evenodd"/><path d="M229.826 468.817C221.682 480.545 223.714 496.4 234.639 505.508 245.564 514.617 261.526 513.763 271.598 503.642L229.826 468.817Z" fill="url(#fill3)" fill-rule="evenodd"/><path d="M459.663 235.601C459.663 235.601 459.663 235.601 459.663 235.601 459.663 235.601 459.663 235.601 459.663 235.601 413.768 197.883 346.277 203.707 307.273 248.53L304.862 251.422C296.879 261.651 290.771 272.898 286.536 285.162 282.838 296.785 280.961 308.836 281.172 320.995 281.919 335.779 276.611 359.131 274.252 369.147 273.341 372.199 274.519 375.36 277.089 377.503L352.92 440.724C355.491 442.867 358.812 443.457 361.651 442.011 371.079 437.889 393.095 428.467 407.772 426.542 419.77 424.562 431.608 420.816 442.055 414.819 453.358 408.448 463.322 400.415 471.948 390.722L474.359 387.831C511.434 341.4 505.022 273.962 459.663 235.601ZM452.937 374.328C446.186 381.772 438.15 388.144 429.686 393.07 421.758 397.353 413.134 400.511 404.028 401.634 389.137 404.47 374.674 408.752 361.282 415.015L331.078 389.834 301.195 364.921C304.626 350.352 306.236 335.355 306.669 320.465 306.456 311.573 307.69 302.254 310.477 293.685 313.479 284.204 318.623 275.421 324.731 267.442L326.874 264.871C356.716 230.383 408.887 225.949 444.179 254.827L444.179 254.827 444.179 254.827C444.179 254.827 444.179 254.827 444.179 254.827 444.179 254.827 444.179 254.827 444.179 254.827L444.179 254.827 444.179 254.827C478.935 284.348 484.226 336.145 455.401 372.025L453.258 374.596Z" fill="url(#fill4)" fill-rule="evenodd"/></g></svg>