<?xml version="1.0" encoding="UTF-8" standalone="no"?>
<svg
   width="750.11713"
   height="301.34406"
   version="1.1"
   viewBox="0 0 198.466 79.727233"
   id="svg336"
   sodipodi:docname="Bing2022logo.svg"
   xml:space="preserve"
   inkscape:version="1.2.1 (9c6d41e410, 2022-07-14)"
   xmlns:inkscape="http://www.inkscape.org/namespaces/inkscape"
   xmlns:sodipodi="http://sodipodi.sourceforge.net/DTD/sodipodi-0.dtd"
   xmlns:xlink="http://www.w3.org/1999/xlink"
   xmlns="http://www.w3.org/2000/svg"
   xmlns:svg="http://www.w3.org/2000/svg"><sodipodi:namedview
     id="namedview338"
     pagecolor="#ffffff"
     bordercolor="#000000"
     borderopacity="0.25"
     inkscape:showpageshadow="2"
     inkscape:pageopacity="0.0"
     inkscape:pagecheckerboard="0"
     inkscape:deskcolor="#d1d1d1"
     showgrid="true"
     inkscape:zoom="0.97227182"
     inkscape:cx="209.30361"
     inkscape:cy="185.13341"
     inkscape:window-width="1920"
     inkscape:window-height="1009"
     inkscape:window-x="-8"
     inkscape:window-y="-8"
     inkscape:window-maximized="1"
     inkscape:current-layer="svg336" /><defs
     id="defs320"><linearGradient
       id="linearGradient1811"><stop
         stop-color="#fff"
         offset="0"
         id="stop1807"
         style="stop-color:#26b3f5;stop-opacity:1;" /><stop
         stop-color="#090909"
         offset="1"
         id="stop1809"
         style="stop-color:#1444d6;stop-opacity:1;" /></linearGradient><linearGradient
       id="logo_lg6"
       x1="6.1999998"
       x2="6.1999998"
       y2="44.542"
       gradientTransform="matrix(1.5397801,0,0,1.5397801,0.0011248,-0.00196392)"
       gradientUnits="userSpaceOnUse"
       xlink:href="#linearGradient1811"
       y1="2.4261913" /><linearGradient
       id="logo_lg4"><stop
         stop-color="#fff"
         offset="0"
         id="stop299"
         style="stop-color:#35c7fc;stop-opacity:1;" /><stop
         stop-color="#090909"
         offset="1"
         id="stop301"
         style="stop-color:#1444d6;stop-opacity:1;" /></linearGradient><linearGradient
       id="logo_lg5"
       x1="4.3250093"
       x2="30.165228"
       y1="48.702557"
       y2="33.175346"
       gradientTransform="matrix(1.5397801,0,0,1.5397801,0.0011248,-0.00196392)"
       gradientUnits="userSpaceOnUse"
       xlink:href="#logo_lg4" /><linearGradient
       id="logo_lg3"
       x1="6.1999998"
       x2="6.1999998"
       y1="44.997002"
       y2="0.78439999"
       gradientTransform="scale(2.0671)"
       gradientUnits="userSpaceOnUse"><stop
         stop-color="#ccc"
         offset="0"
         id="stop305" /><stop
         stop-color="#fff"
         offset="1"
         id="stop307" /></linearGradient><linearGradient
       id="logo_lg2"
       x1="3.9433"
       x2="30.844999"
       y1="48.375"
       y2="32.842999"
       gradientTransform="scale(2.0671)"
       gradientUnits="userSpaceOnUse"><stop
         stop-color="#fff"
         offset="0"
         id="stop310" /><stop
         stop-color="#ccc"
         offset="1"
         id="stop312" /></linearGradient><linearGradient
       id="logo_lg1"
       x1="19.624001"
       x2="34.617001"
       y1="15.022"
       y2="40.990002"
       gradientTransform="matrix(1.5397801,0,0,1.5397801,0.0011248,-0.00196392)"
       gradientUnits="userSpaceOnUse"><stop
         class=""
         stop-color="#e9e9e9"
         offset="0"
         id="stop315"
         style="stop-color:#32c0fb;stop-opacity:1;" /><stop
         class=""
         stop-color="#e9e9e9"
         offset="0.5"
         id="stop20714"
         style="stop-color:#0cd4e3;stop-opacity:1;" /><stop
         stop-color="#fff"
         offset="1"
         id="stop317"
         style="stop-color:#06dada;stop-opacity:1;" /></linearGradient></defs><path
     d="m 54.334034,51.183748 c 0,0.791455 -0.04313,1.578217 -0.129336,2.354253 -0.511195,4.728542 -2.557535,9.004335 -5.638586,12.311685 0.388011,-0.431132 0.737539,-0.894623 1.045465,-1.388863 0.237124,-0.377239 0.44653,-0.769853 0.625142,-1.179473 0.06466,-0.133955 0.123177,-0.27407 0.172451,-0.414194 0.05855,-0.133954 0.107779,-0.274071 0.150894,-0.414186 0.04775,-0.129344 0.09084,-0.263299 0.129337,-0.398796 0.03695,-0.140116 0.07545,-0.280239 0.107779,-0.420354 0.006,-0.01542 0.0108,-0.03233 0.01691,-0.04775 0.03233,-0.140116 0.05847,-0.280232 0.08623,-0.420347 0.02771,-0.144741 0.05393,-0.291017 0.07545,-0.435751 v -0.0108 c 0.02153,-0.133962 0.03695,-0.26946 0.04775,-0.409575 0.03233,-0.317193 0.04923,-0.63592 0.04923,-0.95928 0,-1.820011 -0.500415,-3.527543 -1.378062,-4.981063 -0.198632,-0.338741 -0.420357,-0.662087 -0.6621,-0.970006 -0.284849,-0.366453 -0.592798,-0.711363 -0.926952,-1.028556 -0.829966,-0.802181 -1.798408,-1.459703 -2.870095,-1.923179 -0.463461,-0.204787 -0.948479,-0.371079 -1.442719,-0.495804 -0.0045,0 -0.01691,-0.0046 -0.02153,-0.0046 l -0.177071,-0.06159 -2.509787,-0.86222 v -0.0062 l -6.565462,-2.257193 c -0.02153,-0.0062 -0.04923,-0.0062 -0.06466,-0.01078 l -0.40956,-0.150892 C 32.725164,46.08088 31.631951,45.112385 30.948357,43.879056 L 28.552539,37.766268 25.805651,30.765041 25.27751,29.413124 25.143556,29.139045 c -0.150894,-0.366459 -0.230964,-0.765234 -0.230964,-1.179472 0,-0.107787 0,-0.215566 0.0108,-0.312567 0.155511,-1.53978 1.464322,-2.746888 3.048721,-2.746888 0.420346,0 0.823783,0.08623 1.190199,0.241742 l 12.236451,6.274505 2.412801,1.233329 c 1.276458,0.759126 2.466657,1.653675 3.553762,2.660703 3.94178,3.619984 6.527026,8.692223 6.915044,14.364626 0.03233,0.501958 0.05393,1.00241 0.05393,1.508941 z"
     fill="url(#logo_lg1)"
     id="path324"
     style="opacity:1;fill:url(#logo_lg1);stroke-width:1.53983;stroke-dasharray:none" /><path
     d="m 51.063929,59.349327 c 0,0.625142 -0.06004,1.228711 -0.166291,1.815393 -0.03233,0.155513 -0.06466,0.312567 -0.101627,0.468087 -0.07084,0.280231 -0.144734,0.549683 -0.237116,0.819165 -0.04775,0.140115 -0.09701,0.280232 -0.150894,0.414194 -0.05393,0.140115 -0.112405,0.27407 -0.172451,0.414193 -0.177078,0.409568 -0.388018,0.802182 -0.625142,1.179473 -0.306414,0.495797 -0.657477,0.959281 -1.045465,1.388863 -1.78299,1.970853 -7.837079,5.487669 -10.068051,6.915044 l -4.951863,3.027118 c -3.629146,2.235738 -7.061266,3.818573 -11.385031,3.92636 -0.204787,0.006 -0.403415,0.0108 -0.603584,0.0108 -0.280231,0 -0.554309,-0.0045 -0.829892,-0.01542 C 13.401934,79.432368 7.0151726,75.501389 3.3301589,69.690733 1.6441553,67.036212 0.52933989,63.987492 0.1521232,60.71247 c 0.79145485,4.476022 4.6915954,7.868365 9.3924274,7.868365 1.6475674,0 3.1934554,-0.414194 4.5453714,-1.147144 0.0108,-0.0045 0.02153,-0.0108 0.03233,-0.01542 l 0.485026,-0.291017 1.970853,-1.164053 2.509787,-1.485849 v -0.07084 l 0.323353,-0.194008 22.452735,-13.303145 1.729134,-1.023938 0.172451,0.05851 c 0.0045,0 0.01691,0.0046 0.02153,0.0046 0.495797,0.123176 0.980809,0.291009 1.44272,0.495804 1.071685,0.463461 2.041692,1.120923 2.870094,1.923179 0.334124,0.317193 0.640532,0.662097 0.926953,1.028557 0.241734,0.306413 0.463461,0.629759 0.662087,0.970007 0.874586,1.456575 1.375009,3.162616 1.375009,4.984191 z"
     fill="url(#logo_lg5)"
     opacity="0.08"
     id="path330"
     style="opacity:1;fill:url(#logo_lg5);stroke-width:1.53978" /><path
     d="m 19.092878,14.953813 -0.0077,49.52012 -2.509786,1.487414 -1.972418,1.162488 -0.48656,0.294093 c -0.0077,0 -0.02153,0.0077 -0.02927,0.01542 -1.353407,0.728303 -2.899369,1.148634 -4.5484257,1.148634 -4.7039606,0 -8.59613069,-3.39361 -9.39242737,-7.868365 C 0.10936603,60.507295 0.0800915,60.294813 0.05854903,60.088484 0.02927452,59.697359 0.00774694,59.315502 0,58.92443 V 3.193346 c 0,-1.7598976 1.4273748,-3.19494492 3.1950194,-3.19494492 0.6620883,0 1.2810767,0.20632204 1.7891721,0.54507216 L 14.750558,6.9242008 c 0.05081,0.044657 0.110863,0.081611 0.169375,0.1170236 2.523643,1.7229504 4.172699,4.6238836 4.172699,7.9130586 z"
     fill="url(#logo_lg6)"
     opacity="0.05"
     id="path332"
     style="opacity:1;fill:url(#logo_lg6);stroke-width:1.53978" /><path
     d="M 77.361213,63.261224 V 16.552011 h 14.820564 c 5.881306,0 8.758963,1.089973 10.716403,2.562108 2.64925,1.976076 3.97387,4.713004 3.97387,7.883412 0,2.649243 -0.74917,5.189362 -2.24751,7.143723 -1.49834,1.954361 -3.6286,3.067882 -6.277843,3.893055 v 0 c 3.213833,0.369157 5.832683,1.593998 7.743623,3.613503 1.93264,1.997791 2.89897,4.603605 2.89897,7.817442 0,3.995582 -1.53372,7.740968 -4.72306,10.248435 -3.14869,2.475514 -7.122541,3.547535 -11.921573,3.547535 z m 7.719728,-40.487833 v 13.092978 h 5.016185 c 2.692675,0 4.561559,-0.629738 6.081621,-1.889216 1.54177,-1.281191 2.16794,-2.886872 2.16794,-5.210389 0,-5.119683 -5.536305,-5.993373 -7.630669,-5.993373 z m 0,19.511032 V 56.75741 h 6.612264 c 2.888099,0 4.880115,-0.662311 6.443616,-1.986934 1.585197,-1.346337 2.377799,-2.877114 2.377799,-5.222346 0,-4.842472 -3.547532,-7.263707 -9.831177,-7.263707 z"
     id="path6593"
     style="font-weight:600;font-size:89.9068px;font-family:'Segoe UI';-inkscape-font-specification:'Segoe UI Semi-Bold';fill:#737373;fill-opacity:1;stroke-width:7.87894;stroke-linecap:round;stroke-linejoin:round;paint-order:stroke fill markers"
     sodipodi:nodetypes="ccscsscccssscccscsscccscssc" /><path
     id="path6595"
     style="font-weight:600;font-size:89.9068px;font-family:'Segoe UI';-inkscape-font-specification:'Segoe UI Semi-Bold';fill:#737373;fill-opacity:1;stroke-width:7.91001;stroke-linecap:round;stroke-linejoin:round;paint-order:stroke fill markers"
     d="m 118.84355,15.172414 a 4.7300472,4.6315042 0 0 0 -4.73004,4.631504 4.7300472,4.6315042 0 0 0 4.73004,4.631504 4.7300472,4.6315042 0 0 0 4.73005,-4.631504 4.7300472,4.6315042 0 0 0 -4.73005,-4.631504 z m -3.84201,14.601248 v 33.485637 h 7.58664 V 29.773662 Z" /><path
     d="m 160.16474,63.244322 h -7.58661 V 44.375899 c 0,-6.256773 -2.21276,-9.100786 -6.63829,-9.100786 -2.31086,0 -3.91267,0.58765 -5.41691,2.331699 -1.50424,1.722247 -2.36501,3.902308 -2.36501,6.540182 v 19.097328 h -7.81641 V 29.758594 h 7.75012 v 4.728178 c 3.8109,-4.927132 6.12597,-5.513 10.8567,-5.513 3.79389,0 6.80258,1.188133 8.72103,3.564399 1.91845,2.354465 2.49538,5.76626 2.49538,10.235384 z"
     id="path6597"
     style="font-weight:600;font-size:89.9068px;font-family:'Segoe UI';-inkscape-font-specification:'Segoe UI Semi-Bold';fill:#737373;fill-opacity:1;stroke-width:7.91001;stroke-linecap:round;stroke-linejoin:round;paint-order:stroke fill markers"
     sodipodi:nodetypes="ccsscscccccscsc" /><path
     d="m 198.46601,59.581195 c 0,11.913446 -6.15841,17.870167 -18.47526,17.870167 -4.34456,0 -8.1352,-0.358512 -11.37191,-1.773767 v -7.686324 c 2.44587,1.711092 5.99986,3.547536 10.39437,3.547536 7.92884,0 11.76647,-4.70336 11.76647,-11.430947 v -1.576683 h -0.004 c -4.52941,5.124218 -8.6682,5.124218 -11.27415,5.124218 -4.09495,0 -7.50938,-1.660217 -10.00751,-4.532962 -2.4764,-2.893869 -3.54753,-6.897985 -3.54753,-12.120065 0,-5.513138 1.68727,-10.050975 4.35918,-13.303937 2.67189,-3.252963 6.34305,-4.724659 11.01347,-4.724659 4.40973,0 7.72142,1.472557 9.45654,4.330488 h 0.004 v -3.570054 h 7.68617 z m -7.49437,-12.26198 v -3.569434 c 0,-2.281298 -0.78202,-4.307202 -2.34606,-5.912559 -1.54232,-1.626483 -3.12435,-2.562109 -5.4487,-2.562109 -2.86741,0 -5.35229,1.035033 -6.9815,3.1051 -1.63706,2.086631 -2.36503,4.581228 -2.36503,8.178569 0,3.189594 0.61021,6.108484 2.15253,8.03069 1.56405,1.901082 3.62771,2.956279 6.19101,2.956279 3.43092,0 5.00573,-1.375942 6.63494,-3.192533 1.62921,-1.837712 2.16281,-4.18238 2.16281,-7.034003 z"
     id="path6599"
     style="font-weight:600;font-size:89.9068px;font-family:'Segoe UI';-inkscape-font-specification:'Segoe UI Semi-Bold';fill:#737373;fill-opacity:1;stroke-width:7.77235;stroke-linecap:round;stroke-linejoin:round;paint-order:stroke fill markers"
     sodipodi:nodetypes="ssccssccscsssccccssscscscscs" /></svg>
